<?xml version="1.0" encoding="utf-8"?>
<!-- Generator: Adobe Illustrator 19.1.0, SVG Export Plug-In . SVG Version: 6.00 Build 0)  -->
<!DOCTYPE svg PUBLIC "-//W3C//DTD SVG 1.1//EN" "http://www.w3.org/Graphics/SVG/1.1/DTD/svg11.dtd">
<svg version="1.1" id="Layer_1" xmlns="http://www.w3.org/2000/svg" xmlns:xlink="http://www.w3.org/1999/xlink" x="0px" y="0px"
	 width="864px" height="792px" viewBox="0 0 864 792" style="enable-background:new 0 0 864 792;" xml:space="preserve">
<style type="text/css">
	.st0{fill:#601411;}
	.st1{fill:#FEEB8D;}
	.st2{fill:#931A1D;}
	.st3{fill:#FADA84;}
	.st4{fill:#FFF2B1;}
	.st5{fill:#FEEB8D;stroke:#931A1D;stroke-width:3.2666;stroke-linecap:round;stroke-linejoin:round;stroke-miterlimit:10;}
	.st6{fill:#FFFFFF;}
	.st7{fill:#96241E;}
	.st8{fill:#DADBDC;}
	.st9{fill:#52B36B;stroke:#96241E;stroke-width:3.2666;stroke-linecap:round;stroke-linejoin:round;stroke-miterlimit:10;}
	.st10{fill:#FFFFFF;stroke:#96241E;stroke-width:3.2666;stroke-linecap:round;stroke-linejoin:round;stroke-miterlimit:10;}
	.st11{fill:#7FB541;}
	.st12{fill:#9B1C1F;}
	.st13{fill:#C4DD86;}
	.st14{fill:#3C8C53;}
	.st15{fill:none;stroke:#931A1D;stroke-width:2.6133;stroke-linecap:round;stroke-linejoin:round;stroke-miterlimit:10;}
	.st16{fill:none;stroke:#9B1C1F;stroke-width:2.1329;stroke-linecap:round;stroke-linejoin:round;stroke-miterlimit:10;}
	.st17{fill:#C76228;stroke:#96241E;stroke-width:2.8583;stroke-miterlimit:10;}
	.st18{fill:#C05727;}
	.st19{fill:#E09540;}
	.st20{fill:#52B36B;}
	.st21{fill:none;stroke:#96241E;stroke-width:2.8583;stroke-miterlimit:10;}
	.st22{fill:#E9695B;}
	.st23{fill:#C4584C;}
	.st24{fill:#F58465;}
	.st25{fill:none;stroke:#96241E;stroke-width:3.2666;stroke-linecap:round;stroke-linejoin:round;stroke-miterlimit:10;}
	.st26{fill:#FEEB8D;stroke:#931A1D;stroke-width:2.6133;stroke-linecap:round;stroke-linejoin:round;stroke-miterlimit:10;}
	.st27{fill:#F26977;}
	.st28{fill:#CA5764;}
	.st29{fill:#F7ABB6;}
	.st30{fill:#00A3B5;}
	.st31{fill:#0091A0;}
	.st32{fill:#93D3CB;}
	.st33{fill:none;stroke:#9B1C1F;stroke-width:3.9;stroke-linecap:round;stroke-linejoin:round;stroke-miterlimit:10;}
	.st34{fill:#BD3132;stroke:#96241E;stroke-width:3.705;stroke-linecap:round;stroke-linejoin:round;stroke-miterlimit:10;}
	.st35{fill:#FFDEA7;}
	.st36{fill:#696A6D;stroke:#96241E;stroke-width:3.705;stroke-linecap:round;stroke-linejoin:round;stroke-miterlimit:10;}
	.st37{fill:#FFCF6F;}
	.st38{fill:#FDC065;}
	.st39{fill:#FDF38B;stroke:#96241E;stroke-width:3.705;stroke-miterlimit:10;}
	.st40{fill:#FFCF6F;stroke:#96241E;stroke-width:3.705;stroke-miterlimit:10;}
	.st41{fill:#C76228;}
	.st42{fill:#EF6366;stroke:#96241E;stroke-width:3.5851;stroke-miterlimit:10;}
	.st43{fill:#F37E8F;}
	.st44{fill:#F38497;}
	.st45{fill:#F7AEBC;}
	.st46{fill:#FBAB1F;}
	.st47{fill:#FEBC1A;}
	.st48{fill:#E79F1C;}
	.st49{fill:#B4D456;}
	.st50{fill:#8CA844;}
	.st51{fill:#C7C8CA;stroke:#96241E;stroke-width:3.705;stroke-miterlimit:10;}
	.st52{fill:#61B7AA;}
	.st53{fill:#57C3B6;}
	.st54{fill:#D76C7B;stroke:#931A1D;stroke-width:3.705;stroke-linecap:round;stroke-linejoin:round;stroke-miterlimit:10;}
	.st55{fill:#FFFFFF;stroke:#931A1D;stroke-width:3.705;stroke-linecap:round;stroke-linejoin:round;stroke-miterlimit:10;}
	.st56{fill:#FCE650;stroke:#931A1D;stroke-width:3.705;stroke-linecap:round;stroke-linejoin:round;stroke-miterlimit:10;}
	.st57{fill:#A7D278;}
</style>
<ellipse transform="matrix(0.9919 0.1266 -0.1266 0.9919 69.064 -16.6255)" class="st0" cx="165.3" cy="534.8" rx="55.4" ry="18.4"/>
<g>
	<path class="st1" d="M230.9,452.4c-25,0-43.1-3.2-60.6-6.3c-13.8-2.4-28.1-5-45.7-5.9c-36.2-1.9-48.5-25.6-52.2-35.8
		c-1-2.9-1.6-5.7-1.7-8.5c-0.4-9.5-3.5-13.9-3.5-14c-0.1-0.1-0.1-0.2-0.1-0.3c-9.7-24.8-6.7-30.4-4.9-31.7c1.3-1.9,2.7-2.9,4.4-2.9
		c3.1,0,5.8,3.9,7.6,7.8c0.3-9.5,3.8-11.4,4.5-11.7c1.2-0.5,2.3-0.8,3.3-0.8c2.6,0,5.7,1.7,6.5,9.3c1-0.7,2-0.8,2.7-0.8
		c0.7,0,1.3,0.2,1.6,0.2c0.7,0.1,3,0.7,4.5,3.4c2.9,4.9,1.6,13.6-3.6,25.8c-3.3,7.7-3.6,14.2-0.9,19.4c4.2,8,14.5,10,14.6,10
		c1,0.2,96.3,23.2,130.2,24.9c1,0,1.9,0.1,2.8,0.1c7.5,0,12.2-1.7,13.8-5.1c2.8-6-4.1-16.6-7.1-20.2c-0.3-0.4-0.4-1-0.2-1.4l7.2-14
		c0.2-0.3,0.5-0.6,0.8-0.7c0.1,0,0.2,0,0.3,0c0.2,0,0.5,0.1,0.7,0.2c9,5.9,13.3,13.2,15.4,18.4c2,5,2.3,9,2.4,9.8
		c1.7,6.3,1.2,11.9-1.6,16.9c-5.4,9.5-17.3,12.8-17.8,13c-0.1,0-0.2,0-0.2,0C245.9,452.1,238.3,452.4,230.9,452.4z"/>
	<path class="st2" d="M81.9,343.7c4.2,0,5.3,6.1,5.4,11.7c-0.7,1.9-1,4.8-0.6,9.3c0,0,0.7-4.5,0.6-9.3c1-2.7,2.6-3.2,3.8-3.2
		c0.7,0,1.3,0.2,1.3,0.2s11.3,1.1,0,27.4C81.1,406.1,107,411,107,411s95.9,23.2,130.4,24.9c1,0.1,2,0.1,2.9,0.1
		c30.2,0,7.7-27.5,7.7-27.5l7.2-14c16.8,11,17.2,27.3,17.2,27.3c6.1,21.7-18.4,28.4-18.4,28.4c-8.4,0.6-16.1,0.8-23.1,0.8
		c-44.7,0-66.3-10.1-106.2-12.2c-35-1.8-47.2-24.2-51-34.9c-0.9-2.6-1.5-5.3-1.7-8.1c-0.5-10.1-3.7-14.7-3.7-14.7
		c-10.9-27.9-5.2-30.2-5.2-30.2c1.1-1.8,2.3-2.6,3.4-2.6c4.9,0,9.3,14.4,9.3,14.4c-1.9-16.5,3.3-18.4,3.3-18.4
		C80.2,343.9,81.1,343.7,81.9,343.7 M81.9,341.1L81.9,341.1c-1.2,0-2.5,0.3-3.8,0.9c-1.2,0.5-3.9,2.3-4.9,8.6
		c-2.1-3.2-4.3-4.8-6.7-4.8c-2,0-3.8,1.1-5.3,3.4c-1,0.8-2.1,2.6-2.2,6.4c-0.1,5.7,2.2,14.7,6.9,26.6c0.1,0.2,0.2,0.4,0.3,0.6
		c0,0,2.8,4.3,3.3,13.3c0.1,2.9,0.7,5.9,1.8,8.8c3.7,10.4,16.3,34.7,53.3,36.6c17.5,0.9,31.8,3.4,45.5,5.9
		c17.5,3.1,35.7,6.3,60.8,6.3c7.5,0,15.1-0.3,23.3-0.8c0.2,0,0.3,0,0.5-0.1c0.5-0.1,12.9-3.6,18.6-13.6c3-5.2,3.5-11.2,1.8-17.7
		c-0.1-1.2-0.5-5.1-2.5-10.1c-2.1-5.3-6.7-12.9-15.9-19c-0.4-0.3-0.9-0.4-1.4-0.4c-0.2,0-0.4,0-0.7,0.1c-0.7,0.2-1.3,0.7-1.6,1.3
		l-7.2,14c-0.5,0.9-0.4,2,0.3,2.8c2.6,3.2,9.4,13.5,6.9,18.8c-1.7,3.6-7.8,4.4-12.6,4.4c-0.9,0-1.8,0-2.7-0.1
		c-33.8-1.7-129-24.6-129.9-24.8c0,0-0.1,0-0.1,0c-0.1,0-9.8-2-13.7-9.4c-2.5-4.8-2.2-10.9,1-18.2c5.5-12.7,6.7-21.8,3.6-27
		c-1.8-3-4.3-3.8-5.3-4c-0.4-0.1-1.1-0.3-1.9-0.3c-0.4,0-1,0-1.7,0.2C88.6,345.2,86.6,341.1,81.9,341.1L81.9,341.1z"/>
</g>
<g>
	<path class="st3" d="M254,444.3c-61.4,4.3-83.2-9-129.3-11.3c-35-1.8-47.2-24.2-51-34.9c-0.9-2.6-1.5-5.3-1.7-8.1
		c-0.5-10.1-3.7-14.7-3.7-14.7c-4.1-10.6-5.9-17.5-6.4-22c-0.7,3.2-0.3,10.7,6.4,27.9c0,0,3.3,4.6,3.7,14.7c0.1,2.8,0.7,5.5,1.7,8.1
		c3.8,10.7,16,33.1,51,34.9c46.2,2.4,67.9,15.6,129.3,11.3c0,0,21.8-5.9,19.2-24.7C271.1,439.7,254,444.3,254,444.3z"/>
</g>
<g>
	<path class="st4" d="M112.8,416.4c0,0,95.9,23.2,130.4,24.9c34.5,1.7,10.7-34.3,10.7-34.3l5.2-9.6c-1.2-1-2.4-1.9-3.8-2.8l-7.2,14
		c0,0,23.8,29.1-10.6,27.4C203,434.2,107,411,107,411s-4.4-0.8-8.8-3.6C103.3,414.6,112.8,416.4,112.8,416.4z"/>
	<path class="st4" d="M79.4,409.4c-0.9-2.6-1.5-5.3-1.7-8.1c-0.5-10.1-3.7-14.7-3.7-14.7c-10.9-27.9-5.2-30.2-5.2-30.2
		c1.1-1.8,2.2-2.5,3.3-2.6c-2.5-4.5-5.8-8-9-2.8c0,0-5.7,2.4,5.2,30.2c0,0,3.3,4.6,3.7,14.7c0.1,2.8,0.7,5.5,1.7,8.1
		c2.1,5.8,6.7,15.1,16.1,22.7C84.1,420.5,81,413.9,79.4,409.4z"/>
	<path class="st4" d="M84.2,347.8c0.7-0.3,1.9,1.5,2.5,1.4c-0.9-4.1-3-6.9-7.5-4.8c0,0-3.6,1.3-3.7,11.3
		C75.8,351.5,84.2,347.8,84.2,347.8z"/>
</g>
<path class="st5" d="M235.6,283c0,0-124.8,27.7-109.6,233.1c0,0,8.8,35.3,45.4,27.7c0,0,46.6,2.5,64.3-39.1c0,0,6.3-27.7,0-49.1
	c-6.3-21.4,37.3-107,78.9-129.6l-15.6-74.2L235.6,283z"/>
<path class="st3" d="M311.8,326.5l-15.6-74.2c0,0-16.4,3-5.1,2.5s-1.4,84.6-1.4,84.6c-41.6,22.7-69.7,91-63.4,112.4
	c6.3,21.4,0,49.1,0,49.1c-17.6,41.6-64.3,39.1-64.3,39.1c-10.9,2.3-19.4,0.7-25.8-2.6c7,6,17.3,10.1,32.3,7c0,0,46.6,2.5,64.3-39.1
	c0,0,6.3-27.7,0-49.1C226.5,434.7,270.2,349.2,311.8,326.5z"/>
<path class="st4" d="M140.8,520.2c-15.1-205.4,109.6-233.1,109.6-233.1l58.7-28.9l-1.2-5.7l-63.3,31.2c0,0-124.8,27.7-109.6,233.1
	c0,0,4.5,18.2,20.6,25.6C144.2,533.9,140.8,520.2,140.8,520.2z"/>
<g>
	<path class="st6" d="M263.1,373.9c-17.9,0-32.5-14.6-32.5-32.5s14.6-32.5,32.5-32.5s32.5,14.6,32.5,32.5S281,373.9,263.1,373.9z"/>
	<path class="st7" d="M263.1,310.6c17,0,30.8,13.8,30.8,30.8s-13.8,30.8-30.8,30.8c-17,0-30.8-13.8-30.8-30.8
		S246.1,310.6,263.1,310.6 M263.1,307.4c-18.8,0-34.1,15.3-34.1,34.1s15.3,34.1,34.1,34.1s34.1-15.3,34.1-34.1
		S281.9,307.4,263.1,307.4L263.1,307.4z"/>
</g>
<path class="st8" d="M271.2,368.7c-17,0-30.8-13.8-30.8-30.8c0-11,5.8-20.6,14.4-26.1c-13,3.6-22.5,15.5-22.5,29.7
	c0,17,13.8,30.8,30.8,30.8c6,0,11.7-1.8,16.4-4.8C276.9,368.3,274.1,368.7,271.2,368.7z"/>
<circle class="st9" cx="262.5" cy="341" r="18.2"/>
<path class="st10" d="M271.7,325.3c0,0-11.8,9.5-3.5,18.4c0,0,6,6.8,11.6,2.9C279.8,346.6,286,332.2,271.7,325.3z"/>
<g>
	<path class="st11" d="M324.1,418.6c-2.8,0-5.1-1.1-6.9-3.2c-6.1-7.2-3.7-25-2.5-32.3c0.3-1.5,0.7-3,1.4-4.5c5-11,9.1-23.4,12.4-37
		c-7.3,16.7-16.3,29.7-16.5,29.9c0,0,0,0.1-0.1,0.1c-13.1,15.2-24.4,18.3-31.6,18.3c-6.6,0-10.6-2.5-11.3-3c-4.3-2-6.7-4.7-7.1-8.1
		c-0.9-7.8,9.3-16,9.8-16.3c0,0,0.1-0.1,0.1-0.1c18-10.9,25.4-34.6,28.4-52.7c3-17.6,2.4-33.4,2.3-36.5c-4.3-2.4-9.8-3.5-16.6-3.5
		c-22.1,0-49.7,12.6-49.9,12.7c-11.6,5.5-21.7,8.3-29.9,8.3c-16.7,0-22.5-11.8-23.2-18c0-0.1,0-0.2,0-0.4
		c5.3-22.5,24.5-34.4,55.5-34.4c19.2,0,37.1,4.6,40.9,5.7c1-1.4,1.2-3,0.8-4.8c-1.2-5.2-8.5-12-21-19.6c-9.6-5.8-18.9-10-18.9-10
		c-16.7-9.1-25.1-17.9-25.1-26.1c0-7.6,7.1-11.6,7.4-11.8c0.1,0,0.2-0.1,0.2-0.1c11.1-3.1,22-4.7,32.5-4.7c34.5,0,59.5,17,74.4,31.3
		c16.1,15.5,24.1,31.1,24.2,31.3c1.7,4,3.7,5.9,6,5.9c0,0,0,0,0,0c7,0,18.2-17.7,29.9-47.3c2.4-6.1,6.6-11.1,11.9-14.1
		c2.9-1.7,5.7-2.5,8.3-2.5c8.9,0,11.9,9.9,12,10.3c6.6,27.2-5.3,46-16.6,57c-9.6,9.4-20.1,14.7-24.3,16.6c19.1,12.7,30.1,25,36,33.2
		c6.3,8.6,8.3,14.5,8.6,15.3c8.6,16.3,11.1,28.7,7.4,36.9c-2.7,6.1-7.9,7.4-8.1,7.4c-0.1,0-0.1,0-0.2,0c-0.2,0-0.4,0-0.6,0
		c-13,0-30.4-28.5-40-46.4c4.5,18.5,8.5,47.9,8.8,50.2c6.8,23.1,6.7,39.8-0.4,49.4c-5.3,7.2-12.6,7.8-13.6,7.8
		c-0.6,0.1-1.2,0.2-1.7,0.2c-8.6,0-14.4-12.5-17.3-37.1c-4.8,24-15.9,36-16.5,36.6c0,0-0.1,0.1-0.1,0.1
		C335.4,415.4,329.1,418.6,324.1,418.6z"/>
	<path class="st12" d="M255.2,167.8c66.2,0,97.6,62,97.6,62c2,4.6,4.4,6.5,7,6.5c10.8,0,25.2-33.6,30.9-48
		c2.2-5.7,6.1-10.6,11.4-13.6c3-1.7,5.6-2.4,7.7-2.4c8.2,0,11,9.5,11,9.5c12.6,51.7-42,73.1-42,73.1c38.6,25.2,45.8,49.1,45.8,49.1
		c20.2,38.1,0,42.8,0,42.8c-0.2,0-0.4,0-0.6,0c-15.8,0-39.5-46.4-44.4-56.2c-0.3-0.7-0.6-1.3-0.9-1.8c0,0,0.3,0.6,0.9,1.8
		c5.7,13.4,12.2,61.2,12.2,61.2c16.4,55.4-13.1,56-13.1,56c-0.5,0.1-1.1,0.2-1.6,0.2c-10.8,0-15.3-23-17-44.4
		c1.2-10.1,1.2-21.9-1.1-35.5c0,0-0.4,17.1,1.1,35.5c-3.5,29.5-17.5,44.2-17.5,44.2c-8.3,6.8-14.3,9.5-18.6,9.5
		c-13.3,0-9.7-26.2-8.3-34.2c0.3-1.5,0.7-2.9,1.3-4.2c7.8-17.3,12.5-35.8,15.3-50.6c3.2-9.8,5.1-20.1,3.9-29.4
		c0,0-0.7,12.3-3.9,29.4c-7.3,22.4-21.3,42.5-21.3,42.5c-12.5,14.5-23.4,18-30.8,18c-6.8,0-10.8-2.9-10.8-2.9
		c-16.4-7.6,2.8-22.7,2.8-22.7c35.6-21.4,31.2-90.7,31.2-90.7c-4.9-2.9-11-4-17.7-4c-22.5,0-50.4,12.8-50.4,12.8
		c-12.7,6-22.3,8.2-29.5,8.2c-20.1,0-22.2-17-22.2-17c6.4-27,31.5-33.6,54.5-33.6c21.6,0,41.3,5.8,41.3,5.8
		c11.3-13.9-39.1-36.5-39.1-36.5c-41.6-22.7-17.6-36-17.6-36C234.5,169.2,245.2,167.8,255.2,167.8 M255.2,165.6
		c-10.6,0-21.6,1.6-32.8,4.7c-0.2,0-0.3,0.1-0.5,0.2c-0.3,0.2-8,4.5-8,12.7c0,8.6,8.7,17.7,25.6,27c0,0,0.1,0.1,0.1,0.1
		c10.1,4.6,36.9,18.6,39.3,28.9c0.3,1.2,0.2,2.3-0.3,3.3c-5.1-1.4-21.9-5.5-40.4-5.5c-31.6,0-51.1,12.2-56.6,35.2
		c-0.1,0.2-0.1,0.5,0,0.7c0,0.2,0.6,4.9,3.9,9.5c3.1,4.3,9.1,9.4,20.4,9.4c8.4,0,18.6-2.8,30.4-8.4c0.3-0.1,27.7-12.6,49.5-12.6
		c6.3,0,11.6,1.1,15.6,3.1c0.3,9.1,1.3,68.6-30.2,87.6c-0.1,0-0.1,0.1-0.2,0.2c-1.1,0.9-11.1,9-10.2,17.3c0.4,3.8,3,6.8,7.6,8.9
		c0.9,0.6,5.2,3.1,11.8,3.1c13.4,0,25-10.2,32.4-18.7c0-0.1,0.1-0.1,0.1-0.2c0.4-0.5,5.8-8.4,11.6-19.6c-2.7,9.2-5.8,17.8-9.4,25.7
		c-0.7,1.5-1.2,3.1-1.5,4.7c-1.3,7.5-3.6,25.6,2.7,33.2c2,2.4,4.6,3.5,7.7,3.5c5.2,0,11.7-3.3,19.9-10c0.1-0.1,0.1-0.1,0.2-0.2
		c0.5-0.5,10.1-10.8,15.4-31.3c3.2,21.6,9,32.1,17.6,32.1c0.6,0,1.2-0.1,1.8-0.2c1.4-0.1,8.8-0.8,14.3-8.3c7.3-10,7.5-26.9,0.6-50.3
		c-0.3-2.5-3.5-25.1-7.2-43c2.7,4.8,5.9,10.1,9.3,15.2c11.3,17.1,20.5,25.4,28.1,25.4c0.2,0,0.5,0,0.7,0c0.1,0,0.2,0,0.3-0.1
		c0.2-0.1,5.9-1.5,8.9-8c3.8-8.5,1.4-21.2-7.4-37.7c-0.4-1.2-2.5-7.1-8.7-15.5c-5.8-8-16.5-20-34.7-32.4c5-2.4,14.2-7.6,22.8-16
		c11.4-11.2,23.6-30.3,16.9-58c0,0,0-0.1,0-0.1c-0.1-0.5-3.4-11.1-13.1-11.1c-2.7,0-5.7,0.9-8.8,2.7c-5.5,3.1-9.8,8.3-12.4,14.7
		c-11.2,28.3-22.5,46.6-28.9,46.6c-1.8,0-3.5-1.8-5-5.2c0,0,0-0.1-0.1-0.1c-0.3-0.6-8.2-16-24.4-31.6
		C315.3,182.8,290,165.6,255.2,165.6L255.2,165.6z"/>
</g>
<g>
	<path class="st13" d="M385.2,297.5c0.8,1.9,1.6,4.4,2.4,7.4c5.1,9.1,12,20.6,19.1,29.4C396.7,320.2,387.8,302.8,385.2,297.5z"/>
	<path class="st13" d="M358.4,236.6c10.3,23.8,30.8-23.6,37.9-41.5c2.2-5.7,6.1-10.6,11.4-13.6c6.2-3.5,10.6-2.6,13.5-0.5
		c-1.6-3.6-6.7-12.2-18.2-5.7c-5.3,3-9.2,7.9-11.4,13.6c-6.1,15.5-22.4,53.3-33.3,47.3C358.4,236.5,358.4,236.6,358.4,236.6z"/>
	<path class="st13" d="M228.6,179.2c60.7-17,99.4,16.7,117.5,39.2c-15.6-21.8-55.6-64-122.2-45.4c0,0-15,8.4-0.5,23.2
		C217.7,185.3,228.6,179.2,228.6,179.2z"/>
	<path class="st13" d="M278,370.2c35.6-21.4,31.2-90.7,31.2-90.7c-1.4-0.8-2.9-1.5-4.5-2.1c0.3,15.1-1,68.3-31.4,86.6
		c0,0-17.6,13.9-4.7,21.7C267.7,378.4,278,370.2,278,370.2z"/>
	<path class="st13" d="M189.6,279.4c12.4-52.5,95.8-27.7,95.8-27.7c3.5-4.3,1.1-9.5-4-14.6c1.5,3,1.5,5.9-0.6,8.5
		c0,0-83.4-24.8-95.8,27.7c0,0,0.8,6.8,6.5,11.8C189.9,282,189.6,279.4,189.6,279.4z"/>
</g>
<g>
	<path class="st14" d="M232.1,280.4c-11.5,5.5-20.5,7.8-27.5,8.1c7.5,0.4,17.6-1.6,31.5-8.1c0,0,26.1-12,48.2-12.7
		C261.5,266.9,232.1,280.4,232.1,280.4z"/>
	<path class="st14" d="M276.9,242.9c-6.8-1.7-22.9-5.2-39.9-4.9c20.9,0.3,39.3,5.8,39.3,5.8C276.5,243.5,276.7,243.2,276.9,242.9z"
		/>
	<path class="st14" d="M324.1,348.8c2.1-7.6,5.8-14.9,7.1-21.5c-7.3,22.4-23.4,42.5-23.4,42.5c-11.5,13.3-21.5,17.3-28.8,17.9
		c7.4,0.6,19.1-2,32.8-17.9C311.8,369.8,317.8,361.1,324.1,348.8z"/>
	<path class="st14" d="M349.3,228.7c2.5,5.8,5.7,7.4,9.1,6.1c-1.9-0.8-3.6-2.7-5.1-6.1c0,0-32-63.2-99.5-62
		C318.3,168.6,348.9,229.8,349.3,228.7z"/>
	<path class="st14" d="M358.2,356.4c-3.5,29.5-19,50.5-19,50.5c-7.1,5.8-12.5,8.6-16.5,9.3c4.3,1,10.8-1.3,20.5-9.3
		c0,0,9.7-10.2,15-30.7C357.6,371.8,360.6,359.6,358.2,356.4z"/>
	<path class="st14" d="M425.2,303.1c0,0-7.2-23.9-45.8-49.1c0,0,54.6-21.4,42-73.1c0,0-3.3-11-13.1-9.3c6.7,1.4,9.1,9.3,9.1,9.3
		c12.6,51.7-38.6,74.2-38.6,74.2c38.6,25.2,42.4,48.1,42.4,48.1c17.4,32.8,4.8,40.9,1,42.5c1,0.3,2,0.4,3,0.4
		C425.2,345.9,445.4,341.1,425.2,303.1z"/>
	<path class="st14" d="M384.7,305.8c-4.1-7.3-5.9-14.4-7.3-17.2c5.7,13.1,11,62.4,11,62.4c14.8,49.9-7.6,55.3-12.2,55.9
		c1,0.2,2.1,0.3,3.2,0.1c0,0,29.4-0.5,13.1-56C392.4,350.9,388.9,324.8,384.7,305.8z"/>
</g>
<g>
	<path class="st12" d="M255.2,169c66.2,0,97.6,62,97.6,62c2,4.6,4.4,6.5,7,6.5c10.8,0,25.2-33.6,30.9-48c2.2-5.7,6.1-10.6,11.4-13.6
		c3-1.7,5.6-2.4,7.7-2.4c8.2,0,11,9.5,11,9.5c12.6,51.7-42,73.1-42,73.1c38.6,25.2,45.8,49.1,45.8,49.1c20.2,38.1,0,42.8,0,42.8
		c-0.2,0-0.4,0-0.6,0c-15.8,0-39.5-46.4-44.4-56.2c-0.3-0.7-0.6-1.3-0.9-1.8c0,0,0.3,0.6,0.9,1.8c5.7,13.4,12.2,61.2,12.2,61.2
		c16.4,55.4-13.1,56-13.1,56c-0.5,0.1-1.1,0.2-1.6,0.2c-10.8,0-15.3-23-17-44.4c1.2-10.1,1.2-21.9-1.1-35.5c0,0-0.4,17.1,1.1,35.5
		c-3.5,29.5-17.5,44.2-17.5,44.2c-8.3,6.8-14.3,9.5-18.6,9.5c-13.3,0-9.7-26.2-8.3-34.2c0.3-1.5,0.7-2.9,1.3-4.2
		c7.8-17.3,12.5-35.8,15.3-50.6c3.2-9.8,5.1-20.1,3.9-29.4c0,0-0.7,12.3-3.9,29.4c-7.3,22.4-21.3,42.5-21.3,42.5
		c-12.5,14.5-23.4,18-30.8,18c-6.8,0-10.8-2.9-10.8-2.9c-16.4-7.6,2.8-22.7,2.8-22.7c35.6-21.4,31.2-90.7,31.2-90.7
		c-4.9-2.9-11-4-17.7-4c-22.5,0-50.4,12.8-50.4,12.8c-12.7,6-22.3,8.2-29.5,8.2c-20.1,0-22.2-17-22.2-17c6.4-27,31.5-33.6,54.5-33.6
		c21.6,0,41.3,5.8,41.3,5.8c11.3-13.9-39.1-36.5-39.1-36.5c-41.6-22.7-17.6-36-17.6-36C234.5,170.4,245.2,169,255.2,169
		 M255.2,166.8c-10.6,0-21.6,1.6-32.8,4.7c-0.2,0-0.3,0.1-0.5,0.2c-0.3,0.2-8,4.5-8,12.7c0,8.6,8.7,17.7,25.6,27
		c0,0,0.1,0.1,0.1,0.1c10.1,4.6,36.9,18.6,39.3,28.9c0.3,1.2,0.2,2.3-0.3,3.3c-5.1-1.4-21.9-5.5-40.4-5.5
		c-31.6,0-51.1,12.2-56.6,35.2c-0.1,0.2-0.1,0.5,0,0.7c0,0.2,0.6,4.9,3.9,9.5c3.1,4.3,9.1,9.4,20.4,9.4c8.4,0,18.6-2.8,30.4-8.4
		c0.3-0.1,27.7-12.6,49.5-12.6c6.3,0,11.6,1.1,15.6,3.1c0.3,9.1,1.3,68.6-30.2,87.6c-0.1,0-0.1,0.1-0.2,0.2
		c-1.1,0.9-11.1,9-10.2,17.3c0.4,3.8,3,6.8,7.6,8.9c0.9,0.6,5.2,3.1,11.8,3.1c13.4,0,25-10.2,32.4-18.7c0-0.1,0.1-0.1,0.1-0.2
		c0.4-0.5,5.8-8.4,11.6-19.6c-2.7,9.2-5.8,17.8-9.4,25.7c-0.7,1.5-1.2,3.1-1.5,4.7c-1.3,7.5-3.6,25.6,2.7,33.2
		c2,2.4,4.6,3.5,7.7,3.5c5.2,0,11.7-3.3,19.9-10c0.1-0.1,0.1-0.1,0.2-0.2c0.5-0.5,10.1-10.8,15.4-31.3c3.2,21.6,9,32.1,17.6,32.1
		c0.6,0,1.2-0.1,1.8-0.2c1.4-0.1,8.8-0.8,14.3-8.3c7.3-10,7.5-26.9,0.6-50.3c-0.3-2.5-3.5-25.1-7.2-43c2.7,4.8,5.9,10.1,9.3,15.2
		c11.3,17.1,20.5,25.4,28.1,25.4c0.2,0,0.5,0,0.7,0c0.1,0,0.2,0,0.3-0.1c0.2-0.1,5.9-1.5,8.9-8c3.8-8.5,1.4-21.2-7.4-37.7
		c-0.4-1.2-2.5-7.1-8.7-15.5c-5.8-8-16.5-20-34.7-32.4c5-2.4,14.2-7.6,22.8-16c11.4-11.2,23.6-30.3,16.9-58c0,0,0-0.1,0-0.1
		c-0.1-0.5-3.4-11.1-13.1-11.1c-2.7,0-5.7,0.9-8.8,2.7c-5.5,3.1-9.8,8.3-12.4,14.7c-11.2,28.3-22.5,46.6-28.9,46.6
		c-1.8,0-3.5-1.8-5-5.2c0,0,0-0.1-0.1-0.1c-0.3-0.6-8.2-16-24.4-31.6C315.3,184,290,166.8,255.2,166.8L255.2,166.8z"/>
</g>
<path class="st15" d="M248,408.6c0,0,23.8,29.1-10.6,27.4C203,434.2,107,411,107,411s-26-4.9-14.6-31.2c11.3-26.3,0-27.4,0-27.4
	s-7.1-2.8-5.7,12.3c0,0,3.8-25.5-7.6-20.3c0,0-5.2,1.9-3.3,18.4c0,0-6.6-21.7-12.8-11.8c0,0-5.7,2.4,5.2,30.2c0,0,3.3,4.6,3.7,14.7
	c0.1,2.8,0.7,5.5,1.7,8.1c3.8,10.7,16,33.1,51,34.9c46.2,2.4,67.9,15.6,129.3,11.3c0,0,24.6-6.6,18.4-28.4c0,0-0.4-16.3-17.2-27.3
	L248,408.6z"/>
<path class="st16" d="M279.7,244.2c0,0-83.4-24.8-95.8,27.7c0,0,3.8,31.5,51.7,8.8c0,0,46.6-21.4,68-8.8c0,0,4.3,69.3-31.2,90.7
	c0,0-19.2,15.1-2.8,22.7c0,0,17.6,12.6,41.6-15.1c0,0,29-41.6,25.2-71.8c0,0-2.4,42.6-19.3,80c-0.6,1.4-1.1,2.8-1.3,4.2
	c-1.9,10.6-7.4,52.8,26.9,24.7c0,0,25.2-26.6,16.4-79.7c0,0-2.2,84,19.7,79.7c0,0,29.4-0.5,13.1-56c0,0-7.2-52.9-13.1-63
	c0,0,28.2,59.2,45.8,58c0,0,20.2-4.8,0-42.8c0,0-7.2-23.9-45.8-49.1c0,0,54.6-21.4,42-73.1c0,0-4.5-15.3-18.8-7.1
	c-5.3,3-9.2,7.9-11.4,13.6c-7.1,17.9-27.5,65.2-37.9,41.5c0,0-41.6-82.1-129.8-57.4c0,0-23.9,13.3,17.6,36
	C240.6,207.7,291,230.4,279.7,244.2z"/>
<path class="st17" d="M203.3,300.1c0,0,10.1,26.8,33.6,11.7c0,0,37.3-27.9,66.2-27.2l-0.2-9.1c0,0-14.4-12.7-60.7,5.5
	C242.2,281.1,209.4,294.1,203.3,300.1z"/>
<path class="st18" d="M301.5,274.4c0,0-0.7-0.6-2.3-1.4l0.1,8.5c-28.9-0.7-66.2,27.2-66.2,27.2c-10.8,6.9-18.7,5.1-24.2,1
	c5.4,5.3,14.1,8.9,26.5,1c0,0,37.3-27.9,66.2-27.2L301.5,274.4z"/>
<path class="st19" d="M205.7,303.9c6.1-6,38.9-19.1,38.9-19.1c35.7-14,52.4-9.7,58.2-7l0-2.1c0,0-14.4-12.7-60.7,5.5
	c0,0-32.8,13.1-38.9,19.1c0,0,1.6,4.2,4.9,8.3C206.5,306,205.7,303.9,205.7,303.9z"/>
<circle class="st20" cx="216.2" cy="300.2" r="2.6"/>
<circle class="st20" cx="222.2" cy="295.3" r="2.6"/>
<circle class="st20" cx="207" cy="299" r="2.6"/>
<circle class="st20" cx="211" cy="305.7" r="2.6"/>
<circle class="st20" cx="218.1" cy="310.9" r="2.6"/>
<circle class="st20" cx="222.2" cy="304" r="2.6"/>
<circle class="st20" cx="226.6" cy="309.2" r="2.6"/>
<circle class="st20" cx="228.5" cy="300.2" r="2.6"/>
<circle class="st20" cx="234.9" cy="309.2" r="2.6"/>
<circle class="st20" cx="226.6" cy="289.8" r="2.6"/>
<circle class="st20" cx="234.9" cy="294.2" r="2.6"/>
<circle class="st20" cx="237.5" cy="302" r="2.6"/>
<circle class="st20" cx="242.9" cy="290.1" r="2.6"/>
<circle class="st20" cx="234.9" cy="285.8" r="2.6"/>
<circle class="st20" cx="242.9" cy="283.2" r="2.6"/>
<circle class="st20" cx="247.8" cy="302" r="2.6"/>
<circle class="st20" cx="250.4" cy="287.2" r="2.6"/>
<circle class="st20" cx="250.4" cy="280.6" r="2.6"/>
<circle class="st20" cx="254" cy="293.8" r="2.6"/>
<circle class="st20" cx="244.3" cy="296.8" r="2.6"/>
<circle class="st20" cx="265.2" cy="289.8" r="2.6"/>
<circle class="st20" cx="259.2" cy="285.8" r="2.6"/>
<circle class="st20" cx="257.9" cy="278" r="2.6"/>
<circle class="st20" cx="265.2" cy="280.6" r="2.6"/>
<circle class="st20" cx="270.4" cy="284.6" r="2.6"/>
<circle class="st20" cx="278.1" cy="284.6" r="2.6"/>
<circle class="st20" cx="273.4" cy="278" r="2.6"/>
<circle class="st20" cx="266.5" cy="275.4" r="2.6"/>
<circle class="st20" cx="278.1" cy="272.8" r="2.6"/>
<circle class="st20" cx="282.4" cy="278" r="2.6"/>
<circle class="st20" cx="290.2" cy="282.1" r="2.6"/>
<circle class="st20" cx="290.2" cy="274.5" r="2.6"/>
<circle class="st20" cx="298.2" cy="277.1" r="2.6"/>
<path class="st21" d="M203.1,300.1c0,0,10.1,26.8,33.6,11.7c0,0,37.3-27.9,66.2-27.2l-0.2-9.1c0,0-14.4-12.7-60.7,5.5
	C242,281.1,209.2,294.1,203.1,300.1z"/>
<g>
	<path class="st22" d="M228.8,405.6c-9,0-12.5-9.6-13.1-11.4c-0.8-1.1-5.8-7.7-16.1-7.7c-2.3,0-4.8,0.3-7.3,1
		c-0.1,0-0.2,0.1-0.4,0.1c0,0-0.2,0-0.6,0c-3.1,0-13.6-0.5-16.3-6.7c-1.9-4.3,0.3-9.8,6.6-16.9c5.6-6.2,12.5-9.3,20.5-9.3
		c17.2,0,34.4,14.7,36.2,24c0.3,1.3,4,15.4-1,22.6c-1.7,2.5-4.3,3.9-7.5,4.2C229.5,405.6,229.1,405.6,228.8,405.6z"/>
	<path class="st7" d="M202.1,356.4c16.5,0,33.1,14.5,34.6,22.7c0,0,6.5,23.7-7.1,24.8c-0.3,0-0.6,0-0.9,0
		c-8.5,0-11.6-10.4-11.6-10.4s-5.5-8.6-17.6-8.6c-2.3,0-4.9,0.3-7.7,1.1c0,0-0.2,0-0.5,0c-3.8,0-26.5-0.8-8.5-20.8
		C188.6,358.9,195.4,356.4,202.1,356.4 M202.1,353.2c-8.4,0-15.9,3.4-21.7,9.8c-6.9,7.6-9.1,13.7-6.9,18.6c1,2.3,4.8,7.6,17.8,7.6
		c0.4,0,0.6,0,0.6,0c0.2,0,0.5,0,0.7-0.1c2.4-0.6,4.7-1,6.9-1c4.3,0,8.1,1.2,11.4,3.7c1.8,1.3,2.8,2.6,3.3,3.2
		c0.4,1,1.3,3.3,2.9,5.6c3,4.3,7.1,6.6,11.7,6.6c0.4,0,0.8,0,1.2,0c3.7-0.3,6.7-2,8.7-4.9c5.4-7.7,1.9-21.8,1.3-23.9
		C238,368.6,220,353.2,202.1,353.2L202.1,353.2z"/>
</g>
<path class="st23" d="M230.5,399.7c-9.2,0.8-12.5-10.4-12.5-10.4s-7.8-12.3-25.3-7.6c0,0-15.1,0.5-15.8-7.6c-5,12.6,15,11.9,15,11.9
	c17.5-4.7,25.3,7.6,25.3,7.6s3.3,11.2,12.5,10.4c6.1-0.5,8.1-5.5,8.5-10.9C237.2,396.5,234.9,399.3,230.5,399.7z"/>
<path class="st24" d="M180.9,369.9c19.6-21.7,51.7,2.4,53.9,13.9c0,0,2.5,9.1,1.2,16.3c4.4-7,0.6-21,0.6-21
	c-2.1-11.6-34.3-35.7-53.9-13.9c-4.4,4.9-6.3,8.6-6.8,11.4C177,374.7,178.6,372.4,180.9,369.9z"/>
<path class="st25" d="M192.8,375.1c0,0,26.4-12.7,32.8,7.8"/>
<path class="st26" d="M167.5,348.5c0,0,16.4,4.9,16.4-12.6c0,0,10.1-69.3-25.2-83.2c0,0-51.5-11.3-52.9,45.9c0,1.5,0.1,3.1,0.4,4.6
	c1.5,7.7,6,34.2-0.4,46.2c0,0-11.7,20,0,22.8c0,0,6,0.5,6.9-10.4c0,0-1.9,19.8,8,13.2c0,0,6.4-4.3,3.9-15.1c0,0,3.2,19.8,11.2,7.6
	c0,0-7.6-19.3-8-26.5c0,0-9-60.5,15.1-62.9c0,0,17.6-4.3,13.7,35.9C156.7,314.1,156.2,342.7,167.5,348.5z"/>
<g>
	<path class="st4" d="M161.8,320c2.3-24-3-32.1-7.7-34.8c2.5,5.1,4,13.9,2.6,28.9c0,0-0.4,27.5,10.3,34
		C161.5,337.8,161.8,320,161.8,320z"/>
	<path class="st4" d="M110.9,355.4c6.4-12,1.9-38.5,0.4-46.2c-0.3-1.5-0.4-3-0.4-4.6c1.4-57.2,52.9-45.9,52.9-45.9
		c3.8,1.5,7,3.6,9.8,6.2c-3.7-5.3-8.6-9.6-14.9-12.1c0,0-51.5-11.3-52.9,45.9c0,1.5,0.1,3.1,0.4,4.6c1.5,7.7,6,34.2-0.4,46.2
		c0,0-11.7,20,0,22.8c0,0,0,0,0,0C105,365.4,110.9,355.4,110.9,355.4z"/>
	<path class="st4" d="M130,367c0.3,1.6,0.4,3.1,0.3,4.5c0.3,0.1,0.6,0.1,0.9,0.1C130.6,369.8,130.2,368.1,130,367z"/>
</g>
<g>
	<path class="st3" d="M135.7,281.2c-21.5,5.6-13,62.5-13,62.5c0.4,7.2,8,26.5,8,26.5c-0.1,0.2-0.2,0.3-0.3,0.5c1.6,0.8,3.6,0,6-3.7
		c0,0-7.6-19.3-8-26.5C128.4,340.4,121.6,294.7,135.7,281.2z"/>
	<path class="st3" d="M159.3,252.7c0,0-20.3-4.9-35.8,6c14.3-6.6,30.1-2.8,30.1-2.8c35.3,13.9,25.2,83.2,25.2,83.2
		c0,4.6-1.2,7.7-2.8,9.7c4.2-0.9,8.6-3.9,8.6-12.9C184.5,335.9,194.6,266.6,159.3,252.7z"/>
</g>
<g>
	<path class="st27" d="M198,493.6c-17.1,0-31.2-5.9-42.1-17.7c-0.3-0.3-0.4-0.6-0.4-1c-0.2-2.9-3.9-71.1,13.4-93
		c0.3-0.4,0.7-0.6,1.2-0.6c0,0,0.1,0,0.1,0c0.4,0,0.8,0.2,1.1,0.4c0.3,0.3,28.1,26.3,51.4,26.3c3.2,0,6.2-0.5,9-1.5
		c0.2-0.1,0.4-0.1,0.6-0.1c0.4,0,0.7,0.1,1,0.3c0.4,0.3,0.7,0.9,0.6,1.4c-3.1,34.4-4.6,71.9-1.9,75.3c0.5,0.3,0.7,0.9,0.7,1.4
		c0,0.6-0.4,1.1-0.9,1.4C231.2,486.7,216.3,493.6,198,493.6z"/>
	<path class="st7" d="M170.2,382.9c0,0,28.3,26.8,52.5,26.8c3.3,0,6.5-0.5,9.5-1.6c0,0-6.6,73.6-1.2,76.8c0,0-14.9,7.1-33.1,7.1
		c-13.4,0-28.6-3.8-40.9-17.2C157.1,474.8,153.1,404.6,170.2,382.9 M232.3,408.1L232.3,408.1 M170.2,379.7c-0.1,0-0.2,0-0.2,0
		c-0.9,0.1-1.8,0.5-2.3,1.2c-17.7,22.4-13.9,91.2-13.8,94.1c0,0.8,0.3,1.5,0.9,2c11.2,12.1,25.7,18.2,43.3,18.2
		c18.7,0,33.9-7.1,34.5-7.4c1.1-0.5,1.8-1.6,1.9-2.8c0-1-0.4-1.9-1.1-2.5c-1.8-4.2-1.5-32.6,2.2-74c0-0.1,0-0.3,0-0.4
		c0-1.8-1.5-3.3-3.3-3.3c0,0,0,0,0,0c0,0-0.1,0-0.1,0c-0.4,0-0.7,0.1-1.1,0.2c-2.5,0.9-5.3,1.4-8.3,1.4c-22.6,0-50-25.6-50.3-25.9
		C171.8,380,171,379.7,170.2,379.7L170.2,379.7z"/>
</g>
<g>
	<path class="st28" d="M231.3,408.4c-1.7,0.6-3.3,0.8-5.1,1.1c-1.2,13.7-5.8,72-1,74.8c0,0-24.7,11.7-49.3,5
		c26.1,10,54.3-3.3,54.3-3.3C226,480.1,231.3,408.4,231.3,408.4z"/>
</g>
<g>
	<path class="st29" d="M166.4,479.1c0,0-3.3-65.2,11.6-89.6c-2-1.7-4.7-3.9-4.7-3.9c-17.1,21.7-12,93.5-12,93.5
		c13.1,14.2,29.4,14,43.4,13.5C191.9,492.1,177.9,491.6,166.4,479.1z"/>
</g>
<g>
	<path class="st2" d="M148.6,251.8c5.9,0,10.1,0.9,10.1,0.9c35.3,13.9,25.2,83.2,25.2,83.2c0,11.2-6.7,13.2-11.6,13.2
		c-2.7,0-4.8-0.6-4.8-0.6c-11.3-5.8-10.9-34.4-10.9-34.4c3.2-33.1-8.2-36-12.3-36c-0.9,0-1.4,0.1-1.4,0.1
		c-24.1,2.4-15.1,62.9-15.1,62.9c0.4,7.2,8,26.5,8,26.5c-1.9,2.9-3.5,4-4.9,4c-3.4,0-5.3-6.7-6-9.9c-0.1-0.5-0.2-1.1-0.3-1.6
		c0,0,0.1,0.7,0.3,1.6c1.5,9.7-4.2,13.5-4.2,13.5c-1.4,0.9-2.6,1.4-3.6,1.4c-5.6,0-4.6-13.2-4.5-14.5c0,0,0-0.1,0-0.1c0,0,0,0,0,0.1
		c-0.9,9.9-6,10.3-6.8,10.3c-0.1,0-0.1,0-0.1,0c-11.7-2.8,0-22.8,0-22.8c6.4-12,1.9-38.5,0.4-46.2c-0.3-1.5-0.4-3-0.4-4.6
		C106.8,257.6,133.6,251.8,148.6,251.8 M148.6,249.2c-7.7,0-18.9,1.5-28.2,8.6c-10.9,8.3-16.7,22-17.2,40.8c0,1.7,0.1,3.4,0.5,5.1
		c4.6,23.8,3,38.6-0.2,44.5c-0.9,1.6-7.9,14-4.7,21.5c1.1,2.6,3.3,4.4,6.3,5.1c0.1,0,0.3,0.1,0.4,0.1c0,0,0.1,0,0.3,0
		c0.8,0,2.9-0.2,4.9-1.9c0.4,1.6,1.1,3.1,2.1,4.2c1.1,1.2,2.6,1.9,4.3,1.9c1.6,0,3.2-0.6,5-1.8c0.2-0.1,2.6-1.8,4.2-5.4
		c1.3,1.5,2.8,2.3,4.5,2.3c2.5,0,4.8-1.7,7.1-5.2c0.5-0.7,0.6-1.6,0.2-2.4c-2.1-5.3-7.5-20.1-7.9-25.7c0-0.1,0-0.2,0-0.2
		c0-0.1-1.6-10.5-1.6-22.7c-0.1-15.7,2.2-27,6.8-32.8c2.1-2.7,4.6-4.1,7.6-4.4c0.1,0,0.2,0,0.4-0.1c0,0,0,0,0,0c0,0,0.3-0.1,0.8-0.1
		c1.4,0,3.4,0.4,5.4,2.6c3,3.3,6.2,11.4,4.4,30.6c0,0.1,0,0.1,0,0.2c0,0.3-0.1,7.5,1.2,15.5c1.9,11.3,5.6,18.4,11.1,21.3
		c0.1,0.1,0.3,0.1,0.4,0.2c0.1,0,2.5,0.7,5.5,0.7c4.2,0,14.1-1.5,14.2-15.6c0.3-2,2.4-18.5,0.6-36.8c-2.6-26-12.1-42.9-27.5-48.9
		c-0.1-0.1-0.3-0.1-0.4-0.1C159.1,250.1,154.8,249.2,148.6,249.2L148.6,249.2z"/>
</g>
<path class="st15" d="M167.5,348.5c0,0,16.4,4.9,16.4-12.6c0,0,10.1-69.3-25.2-83.2c0,0-51.5-11.3-52.9,45.9c0,1.5,0.1,3.1,0.4,4.6
	c1.5,7.7,6,34.2-0.4,46.2c0,0-11.7,20,0,22.8c0,0,6,0.5,6.9-10.4c0,0-1.9,19.8,8,13.2c0,0,6.4-4.3,3.9-15.1c0,0,3.2,19.8,11.2,7.6
	c0,0-7.6-19.3-8-26.5c0,0-9-60.5,15.1-62.9c0,0,17.6-4.3,13.7,35.9C156.7,314.1,156.2,342.7,167.5,348.5z"/>
<g>
	<path class="st30" d="M132.6,559.9c-0.4,0-0.8,0-1.2-0.1c-0.1,0-4-0.5-7.1-4.6c-3.6-4.7-4.8-11.9-3.6-21.5c0.1-2,2-41.6,2.1-56.6
		c0-0.4,1.6-36.2,11.4-75.5c9.1-36.5,27.4-83.8,62.6-101.3c0.3-0.1,0.5-0.2,0.8-0.2c0.2,0,0.5,0,0.7,0.1c0.5,0.2,0.9,0.6,1.1,1.1
		l4.8,13.9c2.1,6.2,0.8,13.2-3.5,18.2c-14,16.4-46.2,62.8-41.8,141c3.7,13.9,14.9,58.6,10,65.2c-0.3,0.5-2.3,3.1-5.1,3.1
		c-5,0-7.8-7.5-9.1-23.4c0-0.1,0-0.1,0-0.2c0.2-7.7-0.9-16.5-2.7-18.1c-0.1,0-0.3,0-0.5,0.4c-0.8,1.1-3,6.3,3,29
		c0.8,2.1,6.3,16.6,2.3,22.5c-0.8,1.2-2.4,2.7-5.3,2.7c-0.2,0-0.5,0-0.8,0c-0.6,0-2.8-0.3-5-2.7c-4.4-4.7-6-14.4-4.8-28.6
		c0-0.1,0-0.3,0.1-0.4c0-0.1,3.2-10.9-3.8-17.6c-0.1,0-0.3,0-0.4,0c-0.7,0-1.2,0.3-1.7,0.8c-1.1,1.4-2.7,5.5-0.3,17.9
		c0.8,3,7.1,26.1,2,32.8C135.8,559.2,134.3,559.9,132.6,559.9z"/>
	<path class="st7" d="M197.7,302l4.8,13.9c1.9,5.6,0.7,11.9-3.1,16.4c-14.2,16.6-46.7,63.6-42.2,142.5c0,0,15.2,57.6,10.4,63.8
		c0,0-1.6,2.3-3.6,2.3c-2.6,0-5.8-3.9-7.2-21.7c0,0,0.4-17.5-3.8-19.8c0,0-0.3-0.1-0.7-0.1c-2,0-7.1,2.6,0.7,31.8
		c0,0,9.1,22.7-1.2,22.7c-0.2,0-0.4,0-0.6,0c0,0-10.5,0-8.1-29.3c0,0,3.8-12.3-4.7-19.8c0,0-0.5-0.2-1.3-0.2c-2.5,0-7.5,2.2-3.9,21
		c0,0,9.2,32.7-0.4,32.7c-0.3,0-0.5,0-0.8-0.1c0,0-12.1-1.5-9.1-24.1c0,0,2-41.2,2.1-56.7C124.7,477.2,130.7,335.3,197.7,302
		 M197.7,298.2c-0.6,0-1.1,0.1-1.7,0.4c-16,8-29.9,22.4-41.3,43c-9,16.2-16.5,36.2-22.3,59.6c-9.8,39.5-11.5,75.5-11.5,75.8
		c0,0,0,0.1,0,0.1c0,14.8-1.9,53.7-2.1,56.4c-1.3,10.1,0,17.7,3.9,22.8c3.3,4.3,7.4,5.2,8.3,5.3c0.5,0.1,1,0.1,1.4,0.1
		c2.3,0,4.4-1,5.8-2.9c1.2-1.6,2.6-4.6,2.3-11.7c0.9,2.9,2.2,5.2,3.8,6.9c2.6,2.8,5.3,3.2,6.3,3.3c0.3,0,0.6,0,0.9,0
		c2.9,0,5.4-1.2,6.9-3.5c1.8-2.7,2.1-6.6,1.6-10.6c1.3,1,2.7,1.3,3.8,1.3c3.6,0,6-3.1,6.6-3.9c1.3-1.8,2.3-4.9,1.1-15.2
		c-0.7-5.7-2-13-3.8-22c-2.9-13.7-6.3-27-6.9-29.4c-4.2-77.4,27.5-123.3,41.4-139.5c4.7-5.5,6.2-13.2,3.8-20l-4.8-13.9
		c-0.3-1-1.1-1.8-2.1-2.2C198.7,298.3,198.2,298.2,197.7,298.2L197.7,298.2z M136.7,524.5c-2.4-12.6-0.5-15.7-0.1-16.2c0,0,0,0,0,0
		c5.5,6,2.7,15,2.7,15.1c-0.1,0.3-0.1,0.5-0.2,0.8c-0.3,3.4-0.4,6.6-0.4,9.5C137.9,529,136.9,525.4,136.7,524.5L136.7,524.5z
		 M152.9,513c-0.2-1.8-0.4-3.3-0.4-4.6C152.6,509.8,152.8,511.4,152.9,513L152.9,513z"/>
</g>
<g>
	<path class="st31" d="M202.6,315.7l-4.8-13.9c-1.5,0.7-2.9,1.6-4.4,2.4l4,11.5c1.9,5.6,0.7,11.9-3.1,16.4
		c-14.2,16.6-46.7,63.6-42.2,142.5c0,0,15.2,57.6,10.4,63.8c0,0-0.3,0.5-0.9,1c3,3.5,6.1-1,6.1-1c4.8-6.2-10.4-63.8-10.4-63.8
		c-4.4-79,28-125.9,42.2-142.5C203.3,327.6,204.5,321.3,202.6,315.7z"/>
</g>
<g>
	<path class="st32" d="M128.3,533.9c0,0,2-41.2,2.1-56.7c0,0,5.7-135,68.3-172.6l-0.9-2.6c-67.1,33.4-73,175.2-73,175.2
		c0,15.5-2.1,56.7-2.1,56.7c-3,22.6,9.1,24.1,9.1,24.1c1.4,0.2,2.4-0.1,3.2-0.9C131.6,555.3,126.2,549.9,128.3,533.9z"/>
	<path class="st32" d="M162.4,519.3c0,0,0.4-17.5-3.8-19.8c0,0-4.5-3.9-5.7,0c2.1,5.7,3.8,19.8,3.8,19.8c0.2,3.1,0.5,5.8,0.9,8.2
		c0.3,1.2,0.6,2.4,0.9,3.7c0,0,1.5,3.7,2.5,8.1c2.3,3.3,4.7,1.4,5.8,0.2C165.1,536.9,163.3,531.2,162.4,519.3z"/>
	<path class="st32" d="M148.6,524.4c0,0,3.8-12.3-4.7-19.8c0,0-3.8-2.2-5.7,0c6.9,7.6,4.7,19.8,4.7,19.8
		c-2.4,29.3,8.1,29.3,8.1,29.3c1.5,0.1,2.6-0.2,3.4-0.8C151.5,551.1,146.9,544.9,148.6,524.4z"/>
</g>
<g>
	<path class="st30" d="M242.9,565.4c-3.4,0-8-2-10.5-11.3c0-0.1-0.1-0.2-0.1-0.3c-0.4-2-3.4-19.4,0-27.1c0.2-2.2,1.3-21-1.5-31.1
		c0-0.1-0.1-0.2-0.1-0.3c-0.4-2.5-10.5-60.4,2.6-94.2c0.2-0.8,2.5-8.2,5.8-14.9c2.2-4.5,6.7-7.3,11.7-7.3c2.8,0,5.4,0.9,7.7,2.5
		l1.6,1.2c1.7,1.3,2.1,3.6,0.9,5.4c-5.6,8-32.2,51-4.6,108.4c22.1,45.9,17.9,52.5,16.6,54.6c-0.9,1.5-2.4,2.3-4.2,2.3
		c-1.9,0-3.6-0.9-3.9-1.1c-0.3-0.2-1.8-1-3.6-3.2c1,3.4,1.2,6.2,0.2,8.2c-0.5,1-1.6,2.3-3.7,2.7c-0.3,0.1-0.9,0.3-1.7,0.3
		c-1.4,0-3.3-0.5-5.2-2.5c0.2,2.9-0.6,4.8-2.2,5.9C248.5,563.7,246,565.4,242.9,565.4z M241.7,528.5c-0.1,0.4-0.4,1.7,0.4,5.2
		c0.4,0.7,1.5,3,2.9,6c-0.2-3.6-0.9-8.5-2.6-11C242,528.6,241.8,528.5,241.7,528.5z M248.9,513.5c-0.5,0-0.5,0.1-0.6,0.2
		c-0.2,0.2-0.9,1.6,0.9,6.9c0.7,2,1.6,4.3,2.7,6.7c-0.3-3.3-1-8.6-2.2-13.6c0-0.1-0.1-0.1-0.1-0.1
		C249.3,513.5,249.1,513.5,248.9,513.5z"/>
	<path class="st7" d="M250.9,380.6c2.3,0,4.6,0.7,6.6,2.2l1.6,1.2c0.9,0.7,1.1,1.9,0.5,2.8c-6.1,8.7-32.8,52.1-4.7,110.3
		c23.1,47.9,18.2,54.2,14,54.2c-1.5,0-3-0.8-3-0.8s-6.5-3.3-11.7-19.6c-0.1-0.2-0.1-0.3-0.1-0.5c-0.1-1.5-0.6-9.7-2.5-17.1
		c-0.2-0.7-0.7-1.3-1.5-1.4c-0.3-0.1-0.7-0.1-1.1-0.1c-2,0-4.2,1.5-1.5,9.5c4.3,12.8,19.2,35.1,9.8,36.9c0,0-0.5,0.2-1.2,0.2
		c-2.2,0-6.9-1.8-9.1-16.2c0-0.1,0-0.2,0-0.3c0-1.2-0.2-10-3-14.1c-0.2-0.3-0.5-0.5-0.8-0.6c-0.4-0.2-1-0.4-1.5-0.4
		c-1.4,0-2.7,1.3-1.3,7.5c0,0.2,0.1,0.3,0.2,0.5c1.3,2.5,12.3,24.1,7.2,27.4c0,0-2.1,1.5-4.7,1.5c-2.9,0-6.6-1.9-8.7-9.9
		c0-0.1,0-0.1,0-0.2c-0.2-1.4-3.3-18.8-0.1-26.1c0.1-0.2,0.2-0.4,0.2-0.7c0.2-2.8,1.3-21.4-1.6-31.7c0-0.1,0-0.1,0-0.1
		c-0.4-2.3-10.4-59.9,2.5-93.2c0,0,0-0.1,0-0.1c0.2-0.7,2.5-8,5.7-14.7C242.8,382.9,246.8,380.6,250.9,380.6 M250.9,376.9
		C250.9,376.9,250.9,376.9,250.9,376.9c-5.7,0-10.8,3.2-13.4,8.3c-3.3,6.7-5.6,14-5.9,15.2c-13.2,34.3-3.1,92.7-2.7,95.1
		c0,0.2,0.1,0.3,0.1,0.5c2.6,9.4,1.7,27,1.5,30.1c-3.3,8.1-0.6,24.7,0,27.9c0,0.2,0.1,0.3,0.1,0.5c1.3,4.7,4.5,12.7,12.3,12.7
		c3.5,0,6.3-1.8,6.8-2.2c1.4-0.9,2.3-2.3,2.7-3.9c1.2,0.6,2.5,0.8,3.6,0.8c1,0,1.7-0.2,2.2-0.3c2.8-0.6,4.2-2.4,4.9-3.7
		c0.6-1.3,0.9-2.7,0.9-4.3c0,0,0,0,0,0c0.5,0.3,2.5,1.3,4.8,1.3c2.5,0,4.5-1.1,5.8-3.2c2-3.2,1.9-8.6-0.4-16.9
		c-2.6-9.4-8-22.7-16.1-39.5c-27.2-56.5-1.1-98.6,4.4-106.5c1.8-2.6,1.2-6.1-1.3-8l-1.6-1.2C257.1,377.9,254,376.9,250.9,376.9
		L250.9,376.9z"/>
</g>
<g>
	<path class="st31" d="M254.9,496.6c-20.8-43.2-11.4-78.3-2.7-97.1c-9.1,16.5-23.5,54.6-0.2,102.9c13.4,27.8,17.4,41.6,17.5,48.3
		C273.5,550.2,277,542.5,254.9,496.6z"/>
</g>
<g>
	<path class="st32" d="M236.4,553.5c0,0-3.5-19.1,0-26.5c0,0,1.6-21-1.6-32.1c0,0-10.7-59.3,2.5-93.3c0,0,3.1-9.1,7.3-16.6
		c1.4-2.6,5.6-3.7,8.3-4.2c-3.7-1.2-9.4,1.1-11.3,4.6c-4.1,7.5-7.2,16.1-7.2,16.1c-13.2,34-2.5,93.3-2.5,93.3
		c3.2,11.1,1.6,32.1,1.6,32.1c-3.5,7.3,0,26.5,0,26.5c2.5,9.6,7.1,10.5,10.3,9.9C241.1,562.8,238.2,560.4,236.4,553.5z"/>
</g>
<path class="st33" d="M279.7,244.7c0,0-83.4-24.8-95.8,27.7c0,0,3.8,31.5,51.7,8.8c0,0,46.6-21.4,68-8.8c0,0,4.3,69.3-31.2,90.7
	c0,0-19.2,15.1-2.8,22.7c0,0,17.6,12.6,41.6-15.1c0,0,29-41.6,25.2-71.8c0,0-2.4,42.6-19.3,80c-0.6,1.4-1.1,2.8-1.3,4.2
	c-1.9,10.6-7.4,52.8,26.9,24.7c0,0,25.2-26.6,16.4-79.7c0,0-2.2,84,19.7,79.7c0,0,29.4-0.5,13.1-56c0,0-7.2-52.9-13.1-63
	c0,0,28.2,59.2,45.8,58c0,0,20.2-4.8,0-42.8c0,0-7.2-23.9-45.8-49.1c0,0,54.6-21.4,42-73.1c0,0-4.5-15.3-18.8-7.1
	c-5.3,3-9.2,7.9-11.4,13.6c-7.1,17.9-27.5,65.2-37.9,41.5c0,0-41.6-82.1-129.8-57.4c0,0-23.9,13.3,17.6,36
	C240.6,208.1,291,230.8,279.7,244.7z"/>
<ellipse class="st0" cx="490.5" cy="468.1" rx="27.3" ry="5.9"/>
<ellipse class="st0" cx="698.6" cy="579.7" rx="27.3" ry="5.9"/>
<path class="st34" d="M582.3,227.5c0.1,0,0.3,0,0.4,0c3.7-0.1,4.7,1.4,7.6,3.4c1.9,1.3,4.3,1.8,6.5,1.4c2.5-0.4,5-1.9,7.5-1.4
	c2.1,0.4,3.8,2.2,4,4.3c0.2,2.1-1,4.3-2.9,5.1c2-0.4,4,1.2,4.6,3.1s0.2,4-0.5,5.9c-0.9,2.7-2.5,5.3-5,6.6c-1.7,0.9-3.7,1-5.7,1.1
	c-3.8,0.2-8,0.3-11.2-1.8c-5.2-3.4-7.7-9.2-14.9-6.8c-3.5,1.2-7.1,3.2-10.7,2.3c-3.7-0.9-6.8-4.8-10.4-3.7c-6.6,2-3.1,10.9-2.9,15.5
	c0.3,6.8-4.1,15.1,0.3,21.1c1.6,2.2,3.8,4.1,5.3,6.5c1.7,2.8,2.4,6.2,3.5,9.3c3.3,9.1,10.8,10.1,16.4,17.1c3.2,4,3.6,9.4,5.8,14
	c3.2,6.7,9.8,11,16.7,13.8c6.9,2.7,14.2,4.1,21.1,6.8c2.6,1,5.2,2.2,7.1,4.3c3.7,4.2,3.3,10.6,1.9,16.1c-1.4,5.3-3.9,10.8-8.6,13.6
	c-7.6,4.6-17.7,0.7-24.2-5.3c-6.6-6-11.3-13.9-18.4-19.2c-2.7-2.1-5.8-3.7-8.2-6.1c-6.5-6.5-7-16.6-9.9-25.4
	c-3.1-9.2-8.9-17.5-15.5-24.4c-6.5-6.5-11.8-13.1-17.5-20.3c-5.7-7.1-6.6-18-3.2-26.5c0.8-1.9,1.8-3.7,2.6-5.6
	c2.4-5.6,2.6-11.8,3.6-17.8c1-6,2.9-12.3,7.5-16.1c2.8-2.3,6.5-3.6,10.2-3.5c1.8,0.1,3.6,0.5,5,1.4c2.8,1.9,3.8,5.6,5.7,8.4
	c3.2,5,9.6,7.8,15.3,6.4C574.9,230.1,578.3,227.8,582.3,227.5z"/>
<path class="st34" d="M669.5,446c11,5,18.4,16.9,18,29c-0.2,5-1.6,9.9-1.8,14.9c-0.2,3.8,0.4,8.1,3.2,10.7
	c4.5,4.4,9.7,7.3,12.6,13.3c2.7,5.5,3.7,12.5,8.9,15.6c4.2,2.5,9.5,1.5,14-0.4c4.5-1.9,8.7-4.6,13.5-5.4c6.1-1.1,12.3,1.1,18.4,2.2
	s13.3,0.8,17.4-3.9c2.4-2.7,3.3-6.5,5.1-9.6s5.6-5.9,8.9-4.5c8.3-3.1,16.1-8.1,22-14.8c1.1-1.2,2.1-2.6,2.2-4.2
	c0.2-2.8-2.7-5.1-5.6-5.3c-2.8-0.2-5.6,1.1-8.1,2.3c5.5,0.1,9.5-7.5,6.1-11.9c-3.4-4.4-11.8-2.4-12.8,3c3.4-3.8,0-10.7-5-11.7
	s-10.1,2.5-12.7,6.9c-3.2,5.3-3.8,11.7-5.8,17.5c-2,5.9-6.3,11.8-12.5,12.2c-3.2,0.2-6.6-1.1-9.4,0.4c-1.6,0.9-2.7,2.6-3.9,4
	c-5.1,5.6-13.8,5.5-21.3,5c-1.6-0.1-3.2-0.2-4.5-1.1c-3.8-2.6-2.8-10.6-3.4-14.6c-1-7-2.4-13.8-2.4-20.9c0-2.4,0.2-4.8-0.2-7.2
	c-0.8-5.4-4.2-10-8.4-13.5c-7.6-6.4-22.9-17.6-33.2-10.9C668.2,443.7,668.5,446.3,669.5,446z"/>
<path class="st35" d="M537.2,271.7c-2.4,3-4.1,3.1-2.1,9.8c1.4,4.9,3,10.2,6.9,13.6c5.3,4.7,13.1,5.9,18.7,10.2
	c6.6,5.1,8.1,14.2,10.8,22.1c3.5,10,9.7,19,17.9,25.8c2.6,2.2,5.5,4.2,7.4,7s2.9,6.7,1.1,9.6c-14.9-8.2-26.1-22.6-30.5-39
	c-1-3.8-1.7-7.8-3.7-11.2c-3.8-6.5-11.4-9.5-17.6-13.8c-6.1-4.3-10.9-10.1-14.1-16.8c-2.2-4.6-7.8-11.6-6.8-16.8
	c0.6-3.4,3.5-5.9,5.4-8.8c6.8-10.5,0.1-26.6,8.7-35.6c0.8-0.8,1.8-1.6,2.9-2c2.8-0.9,5.8,1,7.5,3.4c1.7,2.4,2.6,5.2,4.2,7.7
	c3.6,5.4,11,8,17.2,6c3.4-1.1,6.3-3.2,9.7-4.2c5.6-1.6,11.6,0.6,17.1,2.7c2.2,0.9,4.6,1.9,5.8,3.9c-3.1,3.2-8.2,3-12.4,1.8
	c-4.2-1.3-8.2-3.5-12.6-3.7c-7.5-0.4-15.7,5-22.1,0.9c-2.6-1.7-4.1-4.7-6.1-7.1s-5.2-4.5-8.1-3.5c-3.8,1.3-4.2,6.4-4.1,10.4
	c0.3,7.3,0.7,14.6,1,21.9c0.1,1.1,0.1,2.2-0.4,3.2C538.4,270.1,537.8,271,537.2,271.7z"/>
<path class="st36" d="M598.9,256.7h-10.5c-1.5,0-2.7-1.2-2.7-2.7v-37c0-1.5,1.2-2.7,2.7-2.7h10.5c1.5,0,2.7,1.2,2.7,2.7v37
	C601.5,255.5,600.3,256.7,598.9,256.7z"/>
<path class="st35" d="M708.8,505.6c-3.8-5.7-2.4-12.6-3-19.3c-1.2-12-7.8-22.7-14.2-33c-2-3.2-4.1-6.5-7.1-8.8
	c-3-2.3-7.1-3.6-10.6-2.2c15.3,8.6,24.9,26.4,23.6,43.9c-0.4,4.9-1.3,10.4,1.9,14.1c2.8,3.2,8.5,4.6,8.5,8.9c0,4,3.8,10.2,7.7,11.6
	c3.9,1.4,8.5-0.8,12.2-2c7.1-2.3,14.7-1.6,22-1.5c5.3,0.1,13.1,1.8,16.4-3.7c1.1-1.9,1.4-4.1,2.5-6c2-3.4,6.1-4.7,9.9-5.3
	c3.9-0.6,7.9-0.6,11.4-2.4s6.1-6,4.5-9.5c-1.4-3.1-5.5-4.2-8.7-3.3c-3.3,0.9-5.9,3.2-8.5,5.4c-5,4.4-10.1,8.8-15.1,13.3
	c-2.6,2.2-5.2,4.5-8.2,6c-5,2.5-10.8,2.7-16.4,2.9c-3.9,0.1-7.8,0.3-11.8,0.4c-4.5,0.2-9.6,0.1-12.9-3
	C711.2,510.2,710.2,507.7,708.8,505.6z"/>
<g>
	<path class="st37" d="M694,578.7c-17.1,0-38.8-2.9-44.6-16.9c-1.8-4.4-1.9-7.9-0.3-10.4c1.6-2.4,4.7-3.6,9.2-3.6
		c6.9,0,15.5,2.7,18.9,3.9c0.7-1.5,1.7-4.4,0.5-8c-1.9-5.5-9.2-13.4-33.4-20.1c-17.3-4.8-27.2-11.7-29.4-20.7
		c-2.7-11,7.2-20.4,7.6-20.8l0.6-0.6l45.7,6.5l-7.2,2.5c-11.2,3.9-13,7.3-13,9c-0.1,4,8,8,10.8,9.1c1.7,0.7,39.8,17.1,51.7,34.9
		c12.4,18.6-2,33.9-2.1,34l-0.5,0.5l-0.7,0.1C707.7,578.1,701.9,578.7,694,578.7C694,578.7,694,578.7,694,578.7z"/>
	<path class="st7" d="M623.8,483.5l37.3,5.3c-30.7,10.6-2.3,21.6-2.3,21.6s39.1,16.6,50.8,34.2c11.8,17.5-1.9,31.7-1.9,31.7
		s-5.8,0.7-13.8,0.7c-14.9,0-37.3-2.3-42.8-15.7c-3.7-8.9,0.9-11.4,7.2-11.4c8.3,0,19.7,4.3,19.7,4.3s14.6-19-33.2-32.2
		C597,508.7,623.8,483.5,623.8,483.5 M622.6,479.6l-1.3,1.2c-0.5,0.4-11.1,10.6-8.1,22.6c2.4,9.7,12.7,17.1,30.7,22
		c24.5,6.8,30.6,14.7,32.1,18.8c0.7,2.1,0.6,3.9,0.2,5.2c-4.2-1.4-11.6-3.4-17.8-3.4c-5.2,0-8.8,1.5-10.8,4.4c-2,3-2,7.1,0.1,12.1
		c6.2,14.9,28.6,18,46.3,18c8.1,0,13.9-0.7,14.2-0.7l1.3-0.2l0.9-1c0.2-0.2,4-4.2,6.2-10.7c2-6,3-15.4-3.9-25.7
		c-12.2-18.2-50.8-34.8-52.4-35.5l-0.1,0l-0.1,0c-4.6-1.8-9.6-5.3-9.6-7.3c0-1.2,2.5-4.1,11.7-7.3l14.5-5l-15.2-2.1l-37.3-5.3
		L622.6,479.6L622.6,479.6z"/>
</g>
<g>
	<g>
		<path class="st38" d="M673.5,555.6c0,0,0.7-1,1.3-2.6c-5.9-1.9-18.3-5.2-23.1-1.6C660.1,550.5,673.5,555.6,673.5,555.6z"/>
	</g>
	<g>
		<path class="st38" d="M709.6,544.5c-11.8-17.5-50.8-34.2-50.8-34.2s-28.4-10.9,2.3-21.6l-37.3-5.3c0,0,3.2,6.3,2.2,7.5l17,7.4
			l13.5-8.2c-30.7,10.6-2.3,21.6-2.3,21.6s39.1,16.6,50.8,34.2c9.7,14.5,2.1,26.7-0.9,30.5c2.2-0.2,3.5-0.3,3.5-0.3
			S721.4,562,709.6,544.5z"/>
	</g>
</g>
<g>
	<path class="st35" d="M658.8,561.1c-3-7.2-0.6-10.2,3.8-11.1c-8.3-1.1-15.9,0.3-11.5,11.1c6.1,14.6,32.2,16.1,46.7,15.7
		C683.2,576.4,663.9,573.4,658.8,561.1z"/>
	<path class="st35" d="M679.2,551.9c3.8,1.1,6.5,2.1,6.5,2.1s14.6-19-33.2-32.2c-42.3-11.7-26.2-32.7-21.9-37.4l-6.7-1
		c0,0-26.8,25.2,21,38.4C683,532.4,681.4,546.7,679.2,551.9z"/>
</g>
<g>
	<path class="st37" d="M476.4,467.5c-10.9,0-19.3-5.6-19.7-5.9l-0.1-0.1l-0.1-0.1c-5-5-6.8-9.3-5.3-13c2.9-7.1,17.4-8.3,23.9-8.4
		c-0.2-5-0.3-18.9,2.3-33.6c4.3-24.5,14.1-39.8,28.4-44.3c2.5-0.7,5-1.1,7.5-1.1c11.6,0,22.7,8.2,33,24.3c2.7,4.3,4.8,8.8,6.8,13.2
		c1.4,3,2.8,6.2,4.4,9.1c1.6,2.9,3.5,5.3,6,7.4c3.4,3,7.5,5,12.2,7.5c1.7,0.9,3.4,1.7,5.2,2.7c5.2,2.8,11.1,6,15.4,10.9
		c3.4,3.8,4.9,8,4.2,11.8c-0.6,3.1-2.6,5.9-6,8.4c-4.6,3.4-10.4,5.3-16.5,5.3c0,0,0,0,0,0c-7.8,0-15.2-3-20.2-8.2
		c-5-5.1-9.1-12.8-13.4-21c-7.9-14.8-16-30.2-29.9-31.6c-0.3,0-0.5,0-0.7,0c-1.9,0-3.5,0.7-5,2.3c-8,8.2-8.3,34.4-8,45.2
		c0.1,4.9-2,9.6-5.5,12.4C489.5,465.2,483.2,467.5,476.4,467.5z"/>
	<path class="st7" d="M513.2,362.9c13.7,0,24.3,12.4,31.4,23.5c4.5,7.1,7.2,14.9,11.1,22.2c1.8,3.3,3.9,5.8,6.4,7.9
		c4.9,4.2,10.9,6.7,17.7,10.4c5.4,2.9,10.8,5.9,14.9,10.5c2.5,2.8,4.5,6.5,3.8,10.2c-0.6,3-2.8,5.5-5.3,7.3
		c-4.4,3.3-9.9,4.9-15.4,4.9c-7,0-14-2.6-18.9-7.6c-13.7-14-21.7-50.9-44.5-53.1c-0.3,0-0.6,0-0.9,0c-14.5,0-15.2,35.1-14.9,49.4
		c0.1,4.2-1.6,8.3-4.8,11c-5.8,4.7-11.9,6.3-17.4,6.3c-10.4,0-18.6-5.6-18.6-5.6c-18-17.8,15.9-18.2,19-18.2c0.1,0,0.2,0,0.2,0
		s-4-67.5,29.3-77.9C508.6,363.2,510.9,362.9,513.2,362.9 M513.2,359.2c-2.6,0-5.3,0.4-8,1.2c-31.3,9.7-32.4,62.8-32.1,77.8
		c-8,0.4-20.6,2.1-23.7,9.5c-1.8,4.4,0.1,9.5,5.7,15l0.2,0.2l0.3,0.2c0.4,0.3,9.3,6.2,20.7,6.2c7.3,0,13.9-2.4,19.7-7.1
		c4-3.3,6.3-8.5,6.2-13.9c-0.5-22.2,2.3-38.6,7.5-43.9c1.1-1.2,2.3-1.7,3.7-1.7c0.2,0,0.4,0,0.6,0c12.9,1.3,20.8,16.2,28.5,30.6
		c4.4,8.3,8.6,16.2,13.7,21.4c5.4,5.5,13.3,8.7,21.5,8.7c6.5,0,12.7-2,17.6-5.6c3.8-2.8,6-6,6.7-9.6c0.8-4.3-0.8-9.1-4.7-13.4
		c-4.5-5.1-10.6-8.4-15.9-11.3c-1.8-1-3.5-1.9-5.2-2.7c-4.6-2.4-8.5-4.4-11.8-7.2c-2.3-2-4.1-4.2-5.6-6.9c-1.6-2.9-2.9-5.9-4.4-9
		c-2-4.4-4.1-9-6.9-13.4C537.1,367.6,525.5,359.2,513.2,359.2L513.2,359.2z"/>
</g>
<g>
	<g>
		<path class="st38" d="M511.5,397c-15.4-1.5-16.1,34.8-15.8,49.3c0.1,4.2-1.6,8.3-4.8,11c-13.6,11-28.6,4.8-34,1.9
			c0.3,0.3,17.1,13.8,36.9,0.2c3.5-2.4,4.9-6.8,4.8-11c-0.3-14.5,0.4-50.9,15.8-49.3c3.5,0.3,6.7,1.5,9.6,3.3
			C520.4,399.5,516.3,397.5,511.5,397z"/>
	</g>
	<g>
		<path class="st38" d="M541.7,384.3c4.5,7.1,7.2,14.9,11.1,22.2c1.8,3.3,3.9,5.8,6.4,7.9c1.4,1.2,2.8,2.2,4.4,3.2
			c-0.5-0.4-1-0.7-1.5-1.1c-2.4-2.1-4.6-4.6-6.4-7.9c-4-7.3-6.6-15.1-11.1-22.2c-4.4-7-10.3-14.4-17.4-19
			C533,371.9,537.9,378.3,541.7,384.3z"/>
	</g>
	<g>
		<path class="st38" d="M594.7,437.4c-2.2-2.4-4.7-4.4-7.5-6.2c1.6,1.2,3.2,2.6,4.6,4.1c2.5,2.8,4.5,6.5,3.8,10.2
			c-0.6,3-2.8,5.5-5.3,7.3c-8.5,6.3-20.9,6.4-29.8,0.9c8.9,7.5,23.2,8.2,32.6,1.2c2.5-1.8,4.7-4.3,5.3-7.3
			C599.1,443.9,597.2,440.2,594.7,437.4z"/>
	</g>
</g>
<g>
	<path class="st35" d="M542,423.9c3.6,6.5,6.9,13.2,10.4,19C549,436.8,545.7,430.1,542,423.9z"/>
	<path class="st35" d="M558.6,413c1.8,3.3,3.9,5.8,6.4,7.9c4.9,4.2,10.9,6.7,17.7,10.4c5.4,2.9,10.8,5.9,14.9,10.5
		c0.2,0.2,0.4,0.5,0.6,0.8c-0.7-1.9-1.9-3.8-3.3-5.3c-4.1-4.6-9.5-7.6-14.9-10.5c-6.8-3.7-12.8-6.2-17.7-10.4
		c-1.7-1.5-3.3-3.2-4.7-5.3C558,411.8,558.3,412.4,558.6,413z"/>
	<path class="st35" d="M479.9,446.3c0,0-4-67.5,29.3-77.9c16.9-5.1,29.9,9.3,38.1,22.2c-0.8-1.4-1.6-2.9-2.4-4.3
		c-8.2-12.9-21.3-27.5-38.3-22.4c-33.3,10.4-29.3,77.9-29.3,77.9s-34.5-0.4-21.5,15.7C452.2,446,479.9,446.3,479.9,446.3z"/>
</g>
<ellipse transform="matrix(0.7499 -0.6616 0.6616 0.7499 -105.5948 525.4466)" class="st39" cx="642.1" cy="402.4" rx="75.5" ry="116.8"/>
<path class="st40" d="M604.7,429.9c-35.5-40.2-47.8-89.5-33-120.8c-2.4,1.5-4.7,3.1-6.9,5c-31.3,27.6-22,89.1,20.7,137.5
	c42.7,48.4,102.6,65.2,133.8,37.6c5.3-4.6,9.4-10.3,12.4-16.6C699.1,492.6,644.4,475,604.7,429.9z"/>
<g>
	<path class="st35" d="M603.7,436.1c38.5,43.6,91,61.6,123.9,44.4c1.1-1.8,2.2-3.7,3.1-5.6c-32.6,20.1-87.3,2.4-127-42.7
		c-25.5-28.9-39-62.5-39.1-90.7C563.4,370.5,577,405.9,603.7,436.1z"/>
</g>
<path class="st38" d="M726.3,482.6c-31.3,27.6-91.2,10.7-133.8-37.6c-37.4-42.4-49.1-94.9-30.4-125.8
	c-25.1,29.5-14.6,86.8,25.6,132.4c42.7,48.4,102.6,65.2,133.8,37.6c3.9-3.4,7.1-7.4,9.8-11.8C729.7,479.2,728.1,481,726.3,482.6z"/>
<g>
	<path class="st41" d="M699.1,508.3c-3.7,0-7.3-1.5-9.8-4.2L537.7,344.2c-2.5-2.6-3.8-6-3.7-9.6s1.6-7,4.2-9.4l33.1-31.4
		c2.5-2.4,5.8-3.7,9.3-3.7c3.7,0,7.3,1.5,9.8,4.2L742,454.1c2.5,2.6,3.8,6,3.7,9.6s-1.6,7-4.2,9.4l-33.1,31.4
		C705.8,507,702.5,508.3,699.1,508.3z"/>
	<path class="st7" d="M580.6,291.9c3.1,0,6.2,1.2,8.4,3.6l151.6,159.9c4.4,4.6,4.2,12-0.4,16.4L707,503.3c-2.2,2.1-5.1,3.2-8,3.2
		c-3.1,0-6.2-1.2-8.4-3.6L539,342.9c-4.4-4.6-4.2-12,0.4-16.4l33.1-31.4C574.8,292.9,577.7,291.9,580.6,291.9 M580.6,288.2
		L580.6,288.2c-3.9,0-7.7,1.5-10.5,4.2l-33.1,31.4c-3,2.8-4.7,6.6-4.8,10.7s1.4,8,4.2,11l151.6,159.9c2.9,3,6.9,4.8,11.1,4.8
		c3.9,0,7.7-1.5,10.5-4.2l33.1-31.4c3-2.8,4.7-6.6,4.8-10.7s-1.4-8-4.2-11L591.7,292.9C588.8,289.9,584.8,288.2,580.6,288.2
		L580.6,288.2z"/>
</g>
<path class="st18" d="M723.9,480.4c-13.8,13-35.7,12.5-48.7-1.3L555,352.3c-5.4-5.7-8.4-12.8-9.2-20.1c-1.1,9.7,2,19.8,9.2,27.5
	l120.2,126.8c13,13.8,35,14.3,48.7,1.3c8.1-7.6,11.6-18.3,10.5-28.6C733.6,467,730.1,474.6,723.9,480.4z"/>
<g>
	<path class="st19" d="M550.8,310.2L550.8,310.2c10.4-12.4,27.9-15.6,41.9-8.6c-14.5-11.9-36.1-9.9-48.2,4.5
		c-12.2,14.5-10.3,36.4,4.2,48.5C548.7,354.7,538.6,324.8,550.8,310.2z"/>
</g>
<ellipse transform="matrix(0.8555 0.5179 -0.5179 0.8555 293.2147 -295.8373)" class="st42" cx="676.6" cy="377.3" rx="98.6" ry="65.2"/>
<path class="st43" d="M766.2,417.1c-18.7,30.8-71.5,33-118.1,4.8c-34.7-21-56.1-53-57-80.6c-1.1,28.5,20.6,62.6,57,84.6
	c46.6,28.2,99.4,26.1,118.1-4.8c4.7-7.8,6.8-16.8,6.5-26.2C772.4,402.8,770.3,410.4,766.2,417.1z"/>
<ellipse transform="matrix(0.8555 0.5179 -0.5179 0.8555 288.5474 -301.5522)" class="st42" cx="684.5" cy="366.1" rx="98.6" ry="65.2"/>
<g>
	<g>
		<path class="st44" d="M635.5,403c-1.5,0-3-0.5-4.2-1.5c-4-3.2-7.5-7-10.4-11.2c-5.7-8.4-8.8-18.1-8.9-28.1c0-1.8,0.7-3.5,1.9-4.7
			c1.2-1.3,3-2,4.7-2c0.5,0,1,0.1,1.5,0.2l30,6.8c2,0.4,3.6,1.7,4.5,3.6c0.9,1.8,0.9,3.9,0,5.7l-13.2,27.5
			C640.4,401.6,638.1,403,635.5,403L635.5,403z"/>
		<path class="st7" d="M618.7,357.4c0.3,0,0.7,0,1.1,0.1l30,6.8c3,0.7,4.6,3.9,3.2,6.7l-13.2,27.5c-0.8,1.7-2.6,2.7-4.3,2.7
			c-1,0-2.1-0.3-3-1.1c-3.7-3-7.1-6.6-10-10.8c-5.7-8.4-8.5-17.9-8.6-27.1C613.9,359.5,616.1,357.4,618.7,357.4 M618.7,353.7
			c-2.2,0-4.4,0.9-6,2.5c-1.6,1.6-2.5,3.8-2.4,6c0.1,10.4,3.3,20.4,9.2,29.2c3,4.4,6.6,8.3,10.7,11.6c1.5,1.2,3.4,1.9,5.3,1.9
			c3.3,0,6.2-1.8,7.7-4.8l13.2-27.5c1.1-2.3,1.1-5,0-7.4c-1.1-2.3-3.2-4-5.8-4.6l-30-6.8C619.9,353.7,619.3,353.7,618.7,353.7
			L618.7,353.7z"/>
	</g>
</g>
<path class="st45" d="M628.6,394c-5.7-8.4-8.5-17.9-8.6-27.1c0-3.1,2.8-5.4,5.8-4.7l27.5,6.2c-0.2-1.9-1.6-3.7-3.7-4.1l-30-6.8
	c-3-0.7-5.9,1.6-5.8,4.7c0.1,9.3,2.9,18.7,8.6,27.1c2.9,4.2,6.3,7.8,10,10.8c0.6,0.5,1.3,0.8,2,0.9C632.4,399,630.4,396.6,628.6,394
	z"/>
<g>
	<g>
		<path class="st44" d="M673.6,421.4c-0.4,0-0.8,0-1.3,0c-9.3-0.2-18.1-3.1-25.5-8.4c-1.5-1.1-2.5-2.8-2.6-4.7
			c-0.1-1.9,0.7-3.7,2.1-5l20.9-18.5c1.1-1,2.6-1.6,4.1-1.6c2.3,0,4.3,1.2,5.4,3.2l13.2,24.3c0.9,1.7,1,3.6,0.3,5.4
			c-0.7,1.8-2.2,3.1-4.1,3.6C682.1,420.9,677.9,421.4,673.6,421.4C673.6,421.4,673.6,421.4,673.6,421.4z"/>
		<path class="st7" d="M671.3,385.1c1.5,0,3,0.8,3.8,2.3l13.2,24.3c1.3,2.5,0,5.5-2.7,6.3c-3.8,1.1-7.9,1.6-12.1,1.6
			c-0.4,0-0.8,0-1.2,0c-9.2-0.2-17.7-3.2-24.5-8.1c-2.3-1.6-2.5-4.9-0.4-6.8l20.9-18.5C669.2,385.5,670.3,385.1,671.3,385.1
			 M671.3,381.4c-2,0-3.8,0.7-5.3,2L645.1,402c-1.8,1.6-2.8,4-2.7,6.5c0.1,2.5,1.4,4.7,3.4,6.1c7.7,5.5,16.9,8.5,26.6,8.7
			c0.4,0,0.9,0,1.3,0c4.4,0,8.8-0.6,13.1-1.8c2.4-0.7,4.3-2.3,5.3-4.6c1-2.3,0.8-4.8-0.3-7l-13.2-24.3
			C676.9,383,674.2,381.4,671.3,381.4L671.3,381.4z"/>
	</g>
</g>
<path class="st45" d="M652.5,411.5c-2.3-1.6-2.5-4.9-0.4-6.8l20.9-18.5c0.2-0.2,0.4-0.3,0.6-0.4c-1.6-1-3.7-0.9-5.2,0.4l-20.9,18.5
	c-2.1,1.8-1.9,5.2,0.4,6.8c6.9,4.8,15.3,7.8,24.5,8.1c1.2,0,2.5,0,3.7-0.1C667.2,419.1,659.1,416.2,652.5,411.5z"/>
<g>
	<path class="st46" d="M717.7,518.9c-2,0-4-0.4-5.8-1.1c-0.5-0.2-0.9-0.7-1.1-1.2c-1.4-5.3-0.2-11.4,3.2-15.7
		c1.1-1.4,2.4-2.6,3.6-3.7c2-1.8,3.8-3.6,4.7-5.8c4-10.5-4.1-27.8-7.7-34.7c-5.2-9.9-13.2-18-20.3-24.6
		c-14.3-13.4-30.4-25.3-45.9-36.8c-9.9-7.4-20.2-15-30-23c-11.6-9.5-23.3-20.2-34.8-31.8c-7.4-7.5-18.7-10.2-29.7-12.9l-2.2-0.5
		c-2.9-0.7-5.6-1-8.1-1c-4.1,0-7.6,0.9-10.4,2.8c-0.6,0.4-1.1,0.8-1.7,1.2c-2.2,1.6-4.8,3.4-7.6,3.4c-0.9,0-1.7-0.2-2.5-0.5
		c-0.6-0.2-1-0.8-1.1-1.4c-1.7-10.7,0.2-20.5,5.4-27.5c2-2.8,4.7-5.4,8.5-8.2c8.2-6.2,18.3-9,31.8-9c2.4,0,5,0.1,7.8,0.3
		c1.7,0.1,3.4,0.2,5.1,0.3c11.1,0.6,21.5,1.2,31.5,7.3c14.4,8.8,24.2,23,33.6,36.7l2,2.6c27,36,52.4,69.9,95.6,88.1
		c6.7,2.8,14.2,6.4,16.9,13.2c2.7,6.8,0.9,17.6-0.2,24.8l-0.2,1.4c-2.7,16.9-9.8,32.7-20.5,45.6c-2.6,3.1-6.2,7.1-10.8,9.5
		C723.9,518.1,720.8,518.9,717.7,518.9L717.7,518.9z"/>
	<path class="st7" d="M566,288.6c2.6,0,5.1,0.1,7.7,0.3c13,0.9,24.7,0.5,35.8,7.4c14,8.6,23.7,22.6,33,36.2
		c28.2,37.6,53.7,72.6,98.4,91.4c6.1,2.6,13.4,5.9,15.9,12.2c2.7,6.7,0.5,18.3-0.6,25.2c-2.6,16.3-9.6,32-20.1,44.8
		c-2.9,3.5-6.2,6.9-10.2,9.1c-2.5,1.3-5.4,2.1-8.2,2.1c-1.7,0-3.4-0.3-5-1c-1.3-4.8-0.2-10.2,2.9-14.1c2.7-3.5,7-5.9,8.5-10
		c4-10.6-2.9-26.9-7.8-36.2c-5.1-9.6-12.7-17.7-20.6-25.1c-23.6-22-50.9-39.5-75.9-59.8c-12.1-9.9-23.6-20.5-34.6-31.6
		c-8.3-8.4-21.2-11.1-32.8-13.9c-2.8-0.7-5.7-1.1-8.6-1.1c-4.1,0-8.1,0.9-11.4,3.1c-2.6,1.7-5.4,4.3-8.3,4.3c-0.6,0-1.2-0.1-1.8-0.4
		c-1.4-9-0.3-18.8,5-26.2c2.2-3,5.1-5.6,8.1-7.8C544.3,290.5,555.1,288.6,566,288.6 M566,284.9c-13.9,0-24.3,3-32.9,9.4
		c-3.9,2.9-6.7,5.7-8.9,8.6c-5.4,7.5-7.5,17.7-5.7,28.9c0.2,1.3,1,2.3,2.2,2.8c1,0.4,2.1,0.7,3.2,0.7c3.4,0,6.2-2,8.7-3.8
		c0.6-0.4,1.1-0.8,1.6-1.1c2.5-1.6,5.7-2.5,9.4-2.5c2.4,0,5,0.3,7.7,1c0.7,0.2,1.5,0.4,2.2,0.5c10.7,2.6,21.8,5.3,28.8,12.4
		c11.5,11.6,23.2,22.4,34.9,31.9c9.8,8,20.1,15.6,30,23c15.5,11.5,31.5,23.4,45.7,36.7c7,6.5,14.8,14.5,19.9,24.1
		c7.4,14,10.2,26.4,7.6,33.2c-0.7,1.8-2.3,3.3-4.2,5.1c-1.3,1.2-2.6,2.4-3.8,3.9c-3.8,4.8-5.2,11.4-3.6,17.3c0.3,1.1,1.1,2,2.2,2.5
		c2,0.8,4.2,1.3,6.5,1.3c3.3,0,6.8-0.9,9.9-2.6c4.9-2.6,8.6-6.7,11.3-10c10.9-13.2,18.1-29.3,20.9-46.5l0.2-1.4
		c1.2-7.4,3-18.6,0.1-25.8c-3-7.5-10.8-11.3-17.9-14.2c-42.8-18-68.1-51.7-94.9-87.5l-2-2.6c-9.5-13.9-19.4-28.2-34.1-37.2
		c-10.4-6.4-21.1-7-32.4-7.6c-1.7-0.1-3.4-0.2-5.1-0.3C571.1,285,568.5,284.9,566,284.9L566,284.9z"/>
</g>
<g>
	<g>
		<path class="st47" d="M527.2,308.7c2.2-3,5.1-5.6,8.1-7.8c11.1-8.3,24.9-9.3,38.3-8.4c13,0.9,24.7,0.5,35.8,7.4
			c14,8.6,23.7,22.6,33,36.2c28.2,37.6,53.7,72.6,98.4,91.4c6.1,2.6,13.4,5.9,15.9,12.2c0.7,1.7,1.1,3.8,1.2,6c0.2-4.1,0-8-1.2-11
			c-2.5-6.3-9.8-9.6-15.9-12.2c-44.7-18.8-70.2-53.8-98.4-91.4c-9.3-13.6-19-27.6-33-36.2c-11.1-6.8-22.8-6.5-35.8-7.4
			c-13.4-0.9-27.2,0-38.3,8.4c-3,2.3-5.9,4.8-8.1,7.8c-4.4,6.1-5.9,13.8-5.5,21.4C522.1,319.3,523.8,313.5,527.2,308.7z"/>
	</g>
	<g>
		<path class="st47" d="M724.1,495.7c1.1-2.9,1.4-6.3,1.1-9.8c-0.2,1.7-0.5,3.4-1.1,4.9c-1.6,4.1-5.8,6.5-8.5,10
			c-2.7,3.5-3.9,8.1-3.2,12.5c0.4-2.7,1.5-5.4,3.2-7.5C718.3,502.2,722.5,499.8,724.1,495.7z"/>
	</g>
</g>
<g>
	<path class="st48" d="M725.1,481c1.4-10.4-4.5-24.1-8.8-32.3c-5.1-9.6-12.7-17.7-20.6-25.1c-23.6-22-50.9-39.5-75.9-59.8
		c-12.1-9.9-23.6-20.5-34.6-31.6c-8.3-8.4-21.2-11.1-32.8-13.9c-6.7-1.6-14.2-1.8-20,2c-3.2,2.1-6.6,5.4-10.1,3.9
		c-0.2-1.2-0.3-2.3-0.4-3.5c-0.3,3.5-0.1,7.1,0.4,10.6c3.5,1.5,6.9-1.8,10.1-3.9c5.8-3.8,13.3-3.6,20-2c11.6,2.8,24.5,5.5,32.8,13.9
		c11,11.1,22.5,21.7,34.6,31.6c25,20.4,52.3,37.9,75.9,59.8c8,7.4,15.6,15.5,20.6,25.1C719.7,462.2,724.1,472.1,725.1,481z"/>
	<path class="st48" d="M756.3,454.1c-2.6,16.3-9.6,32-20.1,44.8c-2.9,3.5-6.2,6.9-10.2,9.1c-4,2.1-9,2.9-13.2,1.2
		c-0.1-0.2-0.1-0.4-0.1-0.6c-0.6,2.5-0.6,5.2,0.1,7.7c4.2,1.8,9.2,1,13.2-1.2c4-2.1,7.3-5.5,10.2-9.1c10.5-12.8,17.5-28.4,20.1-44.8
		c0.9-5.3,2.3-13.3,1.7-19.8C757.6,445.9,756.8,450.6,756.3,454.1z"/>
</g>
<g>
	<path class="st49" d="M756.7,443.6c-2.1,0-4.2-0.2-6.3-0.7c-2.8-0.6-5.6-1.6-8.3-2.4c-4.4-1.5-8.6-2.9-13-3c-0.3,0-0.6,0-0.9,0
		c-3.7,0-7.7,0.8-11.6,1.7c-3.9,0.8-7.9,1.7-11.8,1.7c-3.6,0-6.7-0.7-9.5-2.2c-7.7-4.2-10.4-13-13-21.5c-2.6-8.7-5.2-16.9-12.6-19
		c-1.7-0.5-3.5-0.6-5-0.6c-0.7,0-1.5,0-2.2,0c-0.8,0-1.6,0-2.4,0c-1.1,0-2.1,0-2.9-0.1c-13.4-1.3-22.1-14.2-27.5-23.7l-0.7-1.2
		c-5.7-10.1-11.6-20.5-21.8-24.2c-2.8-1-6-1.5-9-2c-5.8-0.9-11.7-1.8-16.1-6.1c-5.4-5.3-5.6-13-5.8-20.3c-0.2-6.8-0.4-13.2-4.3-17.6
		c-1.1-1.2-2.5-2.2-3.9-3.3c-1.4-1.1-2.9-2.2-4.2-3.5c-3.9-4.1-4.8-10.5-2.6-16.5s7.2-10.2,12.8-10.8c0.6-0.1,1.2-0.1,1.8-0.1
		c4.3,0,8.4,1.5,12.4,3c3.8,1.4,7.3,2.8,10.8,2.8c0.9,0,1.8-0.1,2.7-0.3c0.7-0.1,1.3-0.2,1.9-0.2c4.1,0,6.7,3,9.3,5.9
		c1.3,1.5,2.6,3,4.1,4.1l142.2,107.3c1.6,1.2,3.1,1.5,4.7,1.8c2.4,0.4,5.3,1,6.7,5.3c2.9,9.3,4.2,18.9,3.9,28.5
		c-0.1,3.3-0.5,6.7-2.1,9.7C769.7,440.8,764,443.6,756.7,443.6z"/>
	<path class="st12" d="M576,269.8c7.9,0,15.5,5.8,23.2,5.8c1,0,2.1-0.1,3.1-0.3c0.5-0.1,1-0.2,1.5-0.2c5.1,0,7.6,6.2,12.2,9.6
		c22.1,16.7,44.2,33.4,66.4,50.1c2.9,2.2,5.8,4.4,8.8,6.6c22.3,16.9,44.7,33.7,67,50.6c4.6,3.5,9,0.6,10.7,6.1
		c2.8,9,4.1,18.5,3.8,27.9c-0.1,3.1-0.4,6.2-1.9,8.9c-2.7,4.9-8.4,6.8-14.1,6.8c-2,0-4-0.2-5.9-0.6c-7.3-1.6-14.2-5.3-21.7-5.5
		c-0.3,0-0.6,0-0.9,0c-7.8,0-15.9,3.3-23.4,3.3c-3,0-5.9-0.5-8.6-2c-14.7-8-9.8-36.1-25.9-40.7c-1.8-0.5-3.6-0.6-5.5-0.6
		c-1.5,0-3.1,0.1-4.6,0.1c-0.9,0-1.8,0-2.8-0.1c-11.9-1.2-20.1-12.3-26-22.8c-5.9-10.4-12.2-22.2-23.5-26.2
		c-8.1-2.9-18.3-1.6-24.4-7.7c-9.5-9.4-1.1-27.9-10-37.9c-2.4-2.6-5.7-4.3-8.1-6.9c-7.3-7.8-1.6-23.1,9-24.2
		C575,269.8,575.5,269.8,576,269.8 M576,266.1c-0.7,0-1.3,0-2,0.1c-6.3,0.7-11.8,5.2-14.3,12s-1.4,13.8,3,18.4
		c1.4,1.5,3,2.7,4.5,3.8c1.4,1,2.6,2,3.6,3c3.5,3.9,3.7,10,3.8,16.4c0.2,7.4,0.4,15.8,6.3,21.6c4.8,4.7,11,5.7,17.1,6.7
		c3.1,0.5,6.1,0.9,8.7,1.9c9.6,3.5,15.3,13.6,20.8,23.4l0.7,1.2c5.6,9.9,14.7,23.2,28.9,24.6c0.9,0.1,1.9,0.1,3.1,0.1
		c0.8,0,1.6,0,2.4,0c0.7,0,1.5,0,2.2,0c1.9,0,3.3,0.1,4.5,0.5c6.5,1.8,8.7,9.2,11.3,17.8c2.6,8.5,5.5,18.1,13.8,22.6
		c3,1.7,6.4,2.5,10.4,2.5c4.1,0,8.2-0.9,12.2-1.7c3.9-0.8,7.6-1.6,11.2-1.6c0.3,0,0.5,0,0.8,0c4.1,0.1,8.2,1.5,12.5,2.9
		c2.7,0.9,5.6,1.8,8.5,2.5c2.2,0.5,4.4,0.7,6.7,0.7c8,0,14.3-3.2,17.3-8.7c1.9-3.4,2.2-7.1,2.4-10.6c0.4-9.9-1-19.7-3.9-29.2
		c-1.7-5.3-5.5-6.1-8.1-6.5c-1.4-0.3-2.7-0.5-3.9-1.4l-20.2-15.2l-46.9-35.4l-5.6-4.2l-3.2-2.4l-66.4-50.1c-1.3-1-2.5-2.4-3.8-3.8
		c-2.7-3.1-5.7-6.6-10.6-6.6c-0.8,0-1.6,0.1-2.3,0.3c-0.7,0.2-1.5,0.2-2.3,0.2c-3.2,0-6.6-1.3-10.2-2.6
		C584.9,267.7,580.7,266.1,576,266.1L576,266.1z"/>
</g>
<g>
	<path class="st50" d="M768.9,398.2c-1.7-5.5-6.1-2.7-10.7-6.1c-22.3-16.9-44.7-33.7-67-50.6c-2.9-2.2-5.8-4.4-8.8-6.6
		c-22.1-16.7-44.2-33.4-66.4-50.1c-5-3.8-7.6-10.8-13.7-9.5c-9.4,2.1-18.4-6.4-27.9-5.4c-4.3,0.4-7.8,3.2-9.9,6.9
		c2-2.1,4.7-3.6,7.7-3.9c9.5-1,18.5,7.5,27.9,5.4c6.1-1.4,8.7,5.7,13.7,9.5c22.1,16.7,44.2,33.4,66.4,50.1c2.9,2.2,5.8,4.4,8.8,6.6
		c22.3,16.9,44.7,33.7,67,50.6c4.6,3.5,9,0.6,10.7,6.1c2.8,9,4.1,18.5,3.8,27.9c-0.1,2.9-0.4,6-1.8,8.6c0.8-0.8,1.5-1.6,2.1-2.6
		c1.5-2.7,1.8-5.8,1.9-8.9C773,416.7,771.8,407.2,768.9,398.2z"/>
</g>
<g>
	<path class="st13" d="M662.8,395.6c-11.9-1.2-20.1-12.3-26-22.8c-5.9-10.4-12.2-22.2-23.5-26.2c-8.1-2.9-18.3-1.6-24.4-7.7
		c-9.5-9.4-1.1-27.9-10-37.9c-2.4-2.6-5.7-4.3-8.1-6.9c-7.1-7.6-1.8-22.3,8.3-24.1c-1.4-0.2-2.8-0.3-4.2-0.1
		c-10.6,1.1-16.3,16.4-9,24.2c2.4,2.6,5.8,4.2,8.1,6.9c8.9,10,0.5,28.5,10,37.9c6.1,6.1,16.3,4.8,24.4,7.7
		c11.3,4.1,17.5,15.8,23.5,26.2c5.9,10.4,14.1,21.6,26,22.8c2,0.2,4,0.1,5.9,0.1C663.5,395.6,663.2,395.6,662.8,395.6z"/>
	<path class="st13" d="M606.3,275.5c-1.1-0.4-2.3-0.5-3.6-0.2c-0.3,0.1-0.5,0.1-0.8,0.1C603.4,275.6,604.9,275.7,606.3,275.5z"/>
	<path class="st13" d="M756.2,441.1c-7.3-1.6-14.2-5.3-21.7-5.5c-1.2,0-2.4,0-3.6,0.1c7,0.6,13.5,3.9,20.3,5.4
		c2.7,0.6,5.6,0.8,8.4,0.5C758.4,441.5,757.3,441.4,756.2,441.1z"/>
	<path class="st13" d="M701.6,436.9c-14.7-8-9.8-36.1-25.9-40.7c-2.8-0.8-5.7-0.6-8.7-0.6c1.2,0.1,2.5,0.2,3.7,0.6
		c16.1,4.6,11.3,32.6,25.9,40.7c3.5,1.9,7.3,2.2,11.2,1.9C705.7,438.6,703.6,438,701.6,436.9z"/>
</g>
<g>
	<path class="st37" d="M727.7,423.3c-29.1,0-63-18-88.5-46.9c-19-21.5-31.5-46.6-35.1-70.6c-3.6-24.3,2.2-44.6,16.4-57.1
		c9.3-8.2,21.7-12.5,35.9-12.5c29.1,0,63,18,88.5,46.9c39.4,44.7,47.8,102,18.6,127.7C754.3,419,741.9,423.3,727.7,423.3z"/>
	<path class="st7" d="M656.5,238.1c27.6,0,60.9,16.6,87.1,46.3c38.8,44,47.2,100,18.8,125.1c-9.3,8.2-21.3,12.1-34.7,12.1
		c-27.6,0-60.9-16.6-87.1-46.3c-38.8-44-47.2-100-18.8-125.1C631.1,241.9,643.1,238.1,656.5,238.1 M656.5,234.3v3.7V234.3
		c-14.7,0-27.5,4.5-37.1,13c-14.7,13-20.8,33.9-17,58.8c3.7,24.3,16.3,49.7,35.5,71.5c12.9,14.7,28.2,26.8,44.1,35.1
		c15.6,8.1,31.4,12.4,45.8,12.4c14.6,0,27.5-4.5,37.1-13c14.7-13,20.8-33.9,17-58.8c-3.7-24.3-16.3-49.7-35.5-71.5
		c-12.9-14.7-28.2-26.8-44.1-35.1C686.7,238.7,670.9,234.3,656.5,234.3L656.5,234.3z"/>
</g>
<g>
	<path class="st35" d="M618.8,255.6c28.4-25.1,83-9.8,121.8,34.2c32.5,36.8,43.6,82,29.8,110.5c18.3-27.9,7.9-76.6-26.7-115.9
		c-38.8-44-93.3-59.3-121.8-34.2c-4.7,4.1-8.3,9.1-11,14.6C613.1,261.4,615.7,258.3,618.8,255.6z"/>
</g>
<path class="st38" d="M770.8,393.7c-28.4,25.1-87.5,17.7-126.3-26.2c-30.1-34.1-37.3-83.3-27.9-111.8
	c-21.9,27.1-12.1,78.5,24.1,119.6c38.8,44,93.3,59.3,121.8,34.2c6.4-5.7,10.9-12.9,13.7-21.2C774.5,390.2,772.7,392,770.8,393.7z"/>
<circle class="st51" cx="593.6" cy="269.3" r="13.4"/>
<g>
	<g>
		<path class="st52" d="M658.9,286.8c-1.2,0-2.2-0.5-2.9-1.4c-0.7-0.9-1.4-2.7-0.7-5.6c1.5-5.9,5.3-8.6,7.5-8.6
			c0.4,0,0.8,0.1,1.2,0.3c0.7,0.4,1.1,1.1,1,1.9c-0.1,0.5-0.1,0.9-0.1,1.5c0,1.4,0,3.4-0.9,7.1C663.1,285.2,660.8,286.8,658.9,286.8
			L658.9,286.8z"/>
		<path class="st2" d="M662.8,273c0.1,0,0.2,0,0.3,0.1c-0.2,1.9,0.3,3.4-0.9,8.4c-0.6,2.3-2,3.5-3.3,3.5c-1.4,0-2.6-1.6-1.8-4.8
			C658.4,274.8,661.7,273,662.8,273 M662.8,269.3c-3.3,0-7.7,3.5-9.3,10c-0.9,3.7,0,6,1,7.2c1.1,1.4,2.7,2.2,4.4,2.2
			c3.2,0,5.9-2.5,6.9-6.3c1-3.9,1-6,1-7.5c0-0.5,0-0.9,0-1.3c0.2-1.5-0.6-3-1.9-3.7C664.3,269.4,663.6,269.3,662.8,269.3
			L662.8,269.3z"/>
	</g>
</g>
<g>
	<g>
		<path class="st52" d="M658.7,355.5c-1.2,0-2.2-0.5-2.9-1.4c-0.7-0.9-1.4-2.7-0.7-5.6c1.5-5.9,5.3-8.6,7.5-8.6
			c0.4,0,0.8,0.1,1.2,0.3c0.7,0.4,1.1,1.1,1,1.9c-0.1,0.5-0.1,0.9-0.1,1.5c0,1.4,0,3.4-0.9,7.1C662.9,354,660.6,355.5,658.7,355.5
			L658.7,355.5z"/>
		<path class="st2" d="M662.6,341.7c0.1,0,0.2,0,0.3,0.1c-0.2,1.9,0.3,3.4-0.9,8.4c-0.6,2.3-2,3.5-3.3,3.5c-1.4,0-2.6-1.6-1.8-4.8
			C658.2,343.5,661.4,341.7,662.6,341.7 M662.6,338c-3.3,0-7.7,3.5-9.3,10c-0.9,3.7,0,6,1,7.2c1.1,1.4,2.7,2.2,4.4,2.2
			c3.2,0,5.9-2.5,6.9-6.3c1-3.9,1-6,1-7.5c0-0.5,0-0.9,0-1.3c0.2-1.5-0.6-3-1.9-3.7C664,338.2,663.3,338,662.6,338L662.6,338z"/>
	</g>
</g>
<g>
	<g>
		<path class="st52" d="M706.8,400.3c-1.1,0-2.2-0.5-2.9-1.4c-0.7-0.9-1.4-2.7-0.7-5.6c1.5-5.9,5.3-8.6,7.5-8.6
			c0.4,0,0.8,0.1,1.2,0.3c0.7,0.4,1.1,1.1,1,1.9c-0.1,0.5-0.1,0.9-0.1,1.5c0,1.4,0,3.4-0.9,7.1C711,398.8,708.7,400.3,706.8,400.3
			C706.8,400.3,706.8,400.3,706.8,400.3z"/>
		<path class="st2" d="M710.7,386.5c0.1,0,0.2,0,0.3,0.1c-0.2,1.9,0.3,3.4-0.9,8.4c-0.6,2.3-2,3.5-3.3,3.5c-1.4,0-2.6-1.6-1.8-4.8
			C706.3,388.4,709.6,386.5,710.7,386.5 M710.7,382.8c-3.3,0-7.7,3.5-9.3,10c-0.9,3.7,0,6,1,7.2c1.1,1.4,2.7,2.2,4.4,2.2
			c3.2,0,5.9-2.5,6.9-6.3c1-3.9,1-6,1-7.5c0-0.5,0-0.9,0-1.3c0.2-1.5-0.6-3-1.9-3.7C712.2,383,711.5,382.8,710.7,382.8L710.7,382.8z
			"/>
	</g>
</g>
<g>
	<g>
		<path class="st52" d="M717.7,375.2c-1.2,0-2.2-0.5-2.9-1.4c-0.7-0.9-1.4-2.7-0.7-5.6c1.5-5.9,5.3-8.6,7.5-8.6
			c0.4,0,0.8,0.1,1.2,0.3c0.7,0.4,1.1,1.1,1,1.9c-0.1,0.5-0.1,0.9-0.1,1.5c0,1.4,0,3.4-0.9,7.1C721.9,373.7,719.6,375.2,717.7,375.2
			L717.7,375.2z"/>
		<path class="st2" d="M721.6,361.4c0.1,0,0.2,0,0.3,0.1c-0.2,1.9,0.3,3.4-0.9,8.4c-0.6,2.3-2,3.5-3.3,3.5c-1.4,0-2.6-1.6-1.8-4.8
			C717.2,363.2,720.4,361.4,721.6,361.4 M721.6,357.7c-3.3,0-7.7,3.5-9.3,10c-0.9,3.7,0,6,1,7.2c1.1,1.4,2.7,2.2,4.4,2.2
			c3.2,0,5.9-2.5,6.9-6.3c1-3.9,1-6,1-7.5c0-0.5,0-0.9,0-1.3c0.2-1.5-0.6-3-1.9-3.7C723,357.8,722.3,357.7,721.6,357.7L721.6,357.7z
			"/>
	</g>
</g>
<g>
	<g>
		<path class="st52" d="M667.6,379.9c-1.1,0-2.2-0.5-2.9-1.4c-0.7-0.9-1.4-2.7-0.7-5.6c1.5-5.9,5.3-8.6,7.5-8.6
			c0.4,0,0.8,0.1,1.2,0.3c0.7,0.4,1.1,1.1,1,1.9c-0.1,0.5-0.1,0.9-0.1,1.5c0,1.4,0,3.4-0.9,7.1C671.8,378.4,669.5,379.9,667.6,379.9
			C667.6,379.9,667.6,379.9,667.6,379.9z"/>
		<path class="st2" d="M671.5,366.1c0.1,0,0.2,0,0.3,0.1c-0.2,1.9,0.3,3.4-0.9,8.4c-0.6,2.3-2,3.5-3.3,3.5c-1.4,0-2.6-1.6-1.8-4.8
			C667.1,368,670.3,366.1,671.5,366.1 M671.5,362.4c-3.3,0-7.7,3.5-9.3,10c-0.9,3.7,0,6,1,7.2c1.1,1.4,2.7,2.2,4.4,2.2
			c3.2,0,5.9-2.5,6.9-6.3c1-3.9,1-6,1-7.5c0-0.5,0-0.9,0-1.3c0.2-1.5-0.6-3-1.9-3.7C672.9,362.6,672.2,362.4,671.5,362.4
			L671.5,362.4z"/>
	</g>
</g>
<g>
	<g>
		<path class="st52" d="M753.9,393c-1.2,0-2.2-0.5-2.9-1.4c-0.7-0.9-1.4-2.7-0.7-5.6c1.5-5.9,5.3-8.6,7.5-8.6c0.4,0,0.8,0.1,1.2,0.3
			c0.7,0.4,1.1,1.1,1,1.9c-0.1,0.5-0.1,0.9-0.1,1.5c0,1.4,0,3.4-0.9,7.1C758.1,391.5,755.8,393,753.9,393L753.9,393z"/>
		<path class="st2" d="M757.8,379.2c0.1,0,0.2,0,0.3,0.1c-0.2,1.9,0.3,3.4-0.9,8.4c-0.6,2.3-2,3.5-3.3,3.5c-1.4,0-2.6-1.6-1.8-4.8
			C753.4,381,756.6,379.2,757.8,379.2 M757.8,375.5c-3.3,0-7.7,3.5-9.3,10c-0.9,3.7,0,6,1,7.2c1.1,1.4,2.7,2.2,4.4,2.2
			c3.2,0,5.9-2.5,6.9-6.3c1-3.9,1-6,1-7.5c0-0.5,0-0.9,0-1.3c0.2-1.5-0.6-3-1.9-3.7C759.2,375.6,758.5,375.5,757.8,375.5
			L757.8,375.5z"/>
	</g>
</g>
<g>
	<g>
		<path class="st52" d="M733.4,396.7c-1.1,0-2.2-0.5-2.9-1.4c-0.7-0.9-1.4-2.7-0.7-5.6c1.5-5.9,5.3-8.6,7.5-8.6
			c0.4,0,0.8,0.1,1.2,0.3c0.7,0.4,1.1,1.1,1,1.9c-0.1,0.5-0.1,0.9-0.1,1.5c0,1.4,0,3.4-0.9,7.1C737.7,395.2,735.4,396.7,733.4,396.7
			C733.4,396.7,733.4,396.7,733.4,396.7z"/>
		<path class="st2" d="M737.4,382.9c0.1,0,0.2,0,0.3,0.1c-0.2,1.9,0.3,3.4-0.9,8.4c-0.6,2.3-2,3.5-3.3,3.5c-1.4,0-2.6-1.6-1.8-4.8
			C732.9,384.7,736.2,382.9,737.4,382.9 M737.4,379.2c-3.3,0-7.7,3.5-9.3,10c-0.9,3.7,0,6,1,7.2c1.1,1.4,2.7,2.2,4.4,2.2
			c3.2,0,5.9-2.5,6.9-6.3c1-3.9,1-6,1-7.5c0-0.5,0-0.9,0-1.3c0.2-1.5-0.6-3-1.9-3.7C738.8,379.3,738.1,379.2,737.4,379.2
			L737.4,379.2z"/>
	</g>
</g>
<g>
	<g>
		<path class="st52" d="M757,365.2c-1.2,0-2.2-0.5-2.9-1.4c-0.7-0.9-1.4-2.7-0.7-5.6c1.5-5.9,5.3-8.6,7.5-8.6c0.4,0,0.8,0.1,1.2,0.3
			c0.7,0.4,1.1,1.1,1,1.9c-0.1,0.5-0.1,0.9-0.1,1.5c0,1.4,0,3.4-0.9,7.1C761.3,363.7,759,365.2,757,365.2L757,365.2z"/>
		<path class="st2" d="M761,351.5c0.1,0,0.2,0,0.3,0.1c-0.2,1.9,0.3,3.4-0.9,8.4c-0.6,2.3-2,3.5-3.3,3.5c-1.4,0-2.6-1.6-1.8-4.8
			C756.5,353.3,759.8,351.5,761,351.5 M761,347.7c-3.3,0-7.7,3.5-9.3,10c-0.9,3.7,0,6,1,7.2c1.1,1.4,2.7,2.2,4.4,2.2
			c3.2,0,5.9-2.5,6.9-6.3c1-3.9,1-6,1-7.5c0-0.5,0-0.9,0-1.3c0.2-1.5-0.6-3-1.9-3.7C762.4,347.9,761.7,347.7,761,347.7L761,347.7z"
			/>
	</g>
</g>
<g>
	<g>
		<path class="st52" d="M741.8,353.3c-1.2,0-2.2-0.5-2.9-1.4c-0.7-0.9-1.4-2.7-0.7-5.6c1.5-5.9,5.3-8.6,7.5-8.6
			c0.4,0,0.8,0.1,1.2,0.3c0.7,0.4,1.1,1.1,1,1.9c-0.1,0.5-0.1,0.9-0.1,1.5c0,1.4,0,3.4-0.9,7.1C746,351.8,743.7,353.3,741.8,353.3
			L741.8,353.3z"/>
		<path class="st2" d="M745.7,339.5c0.1,0,0.2,0,0.3,0.1c-0.2,1.9,0.3,3.4-0.9,8.4c-0.6,2.3-2,3.5-3.3,3.5c-1.4,0-2.6-1.6-1.8-4.8
			C741.3,341.3,744.5,339.5,745.7,339.5 M745.7,335.8c-3.3,0-7.7,3.5-9.3,10c-0.9,3.7,0,6,1,7.2c1.1,1.4,2.7,2.2,4.4,2.2
			c3.2,0,5.9-2.5,6.9-6.3c1-3.9,1-6,1-7.5c0-0.5,0-0.9,0-1.3c0.2-1.5-0.6-3-1.9-3.7C747.1,336,746.4,335.8,745.7,335.8L745.7,335.8z
			"/>
	</g>
</g>
<g>
	<g>
		<path class="st52" d="M632.6,340.4c-1.2,0-2.2-0.5-2.9-1.4c-0.7-0.9-1.4-2.7-0.7-5.6c1.5-5.9,5.3-8.6,7.5-8.6
			c0.4,0,0.8,0.1,1.2,0.3c0.7,0.4,1.1,1.1,1,1.9c-0.1,0.5-0.1,0.9-0.1,1.5c0,1.4,0,3.4-0.9,7.1C636.8,338.9,634.5,340.4,632.6,340.4
			L632.6,340.4z"/>
		<path class="st2" d="M636.5,326.6c0.1,0,0.2,0,0.3,0.1c-0.2,1.9,0.3,3.4-0.9,8.4c-0.6,2.3-2,3.5-3.3,3.5c-1.4,0-2.6-1.6-1.8-4.8
			C632.1,328.5,635.4,326.6,636.5,326.6 M636.5,322.9c-3.3,0-7.7,3.5-9.3,10c-0.9,3.7,0,6,1,7.2c1.1,1.4,2.7,2.2,4.4,2.2
			c3.2,0,5.9-2.5,6.9-6.3c1-3.9,1-6,1-7.5c0-0.5,0-0.9,0-1.3c0.2-1.5-0.6-3-1.9-3.7C637.9,323.1,637.3,322.9,636.5,322.9
			L636.5,322.9z"/>
	</g>
</g>
<g>
	<g>
		<path class="st52" d="M629.5,307.3c-1.2,0-2.2-0.5-2.9-1.4c-0.7-0.9-1.4-2.7-0.7-5.6c1.5-5.9,5.3-8.6,7.5-8.6
			c0.4,0,0.8,0.1,1.2,0.3c0.7,0.4,1.1,1.1,1,1.9c-0.1,0.5-0.1,0.9-0.1,1.5c0,1.4,0,3.4-0.9,7.1C633.7,305.8,631.4,307.3,629.5,307.3
			L629.5,307.3z"/>
		<path class="st2" d="M633.4,293.5c0.1,0,0.2,0,0.3,0.1c-0.2,1.9,0.3,3.4-0.9,8.4c-0.6,2.3-2,3.5-3.3,3.5c-1.4,0-2.6-1.6-1.8-4.8
			C629,295.4,632.2,293.5,633.4,293.5 M633.4,289.8c-3.3,0-7.7,3.5-9.3,10c-0.9,3.7,0,6,1,7.2c1.1,1.4,2.7,2.2,4.4,2.2
			c3.2,0,5.9-2.5,6.9-6.3c1-3.9,1-6,1-7.5c0-0.5,0-0.9,0-1.3c0.2-1.5-0.6-3-1.9-3.7C634.8,290,634.1,289.8,633.4,289.8L633.4,289.8z
			"/>
	</g>
</g>
<g>
	<g>
		<path class="st52" d="M622.4,277.6c-1.1,0-2.2-0.5-2.9-1.4c-0.7-0.9-1.4-2.7-0.7-5.6c1.5-5.9,5.3-8.6,7.5-8.6
			c0.4,0,0.8,0.1,1.2,0.3c0.7,0.4,1.1,1.1,1,1.9c-0.1,0.5-0.1,0.9-0.1,1.5c0,1.4,0,3.4-0.9,7.1C626.6,276.1,624.3,277.6,622.4,277.6
			C622.4,277.6,622.4,277.6,622.4,277.6z"/>
		<path class="st2" d="M626.3,263.9c0.1,0,0.2,0,0.3,0.1c-0.2,1.9,0.3,3.4-0.9,8.4c-0.6,2.3-2,3.5-3.3,3.5c-1.4,0-2.6-1.6-1.8-4.8
			C621.9,265.7,625.2,263.9,626.3,263.9 M626.3,260.1c-3.3,0-7.7,3.5-9.3,10c-0.9,3.7,0,6,1,7.2c1.1,1.4,2.7,2.2,4.4,2.2
			c3.2,0,5.9-2.5,6.9-6.3c1-3.9,1-6,1-7.5c0-0.5,0-0.9,0-1.3c0.2-1.5-0.6-3-1.9-3.7C627.8,260.3,627.1,260.1,626.3,260.1
			L626.3,260.1z"/>
	</g>
</g>
<g>
	<g>
		<path class="st52" d="M680.8,271.7c-1.1,0-2.2-0.5-2.9-1.4c-0.7-0.9-1.4-2.7-0.7-5.6c1.5-5.9,5.3-8.6,7.5-8.6
			c0.4,0,0.8,0.1,1.2,0.3c0.7,0.4,1.1,1.1,1,1.9c-0.1,0.5-0.1,0.9-0.1,1.5c0,1.4,0,3.4-0.9,7.1C685.1,270.2,682.8,271.7,680.8,271.7
			C680.8,271.7,680.8,271.7,680.8,271.7z"/>
		<path class="st2" d="M684.8,257.9c0.1,0,0.2,0,0.3,0.1c-0.2,1.9,0.3,3.4-0.9,8.4c-0.6,2.3-2,3.5-3.3,3.5c-1.4,0-2.6-1.6-1.8-4.8
			C680.3,259.7,683.6,257.9,684.8,257.9 M684.8,254.2c-3.3,0-7.7,3.5-9.3,10c-0.9,3.7,0,6,1,7.2c1.1,1.4,2.7,2.2,4.4,2.2
			c3.2,0,5.9-2.5,6.9-6.3c1-3.9,1-6,1-7.5c0-0.5,0-0.9,0-1.3c0.2-1.5-0.6-3-1.9-3.7C686.2,254.3,685.5,254.2,684.8,254.2
			L684.8,254.2z"/>
	</g>
</g>
<g>
	<g>
		<path class="st52" d="M720.8,309.2c-1.1,0-2.2-0.5-2.9-1.4c-0.7-0.9-1.4-2.7-0.7-5.6c1.5-5.9,5.3-8.6,7.5-8.6
			c0.4,0,0.8,0.1,1.2,0.3c0.7,0.4,1.1,1.1,1,1.9c-0.1,0.5-0.1,0.9-0.1,1.5c0,1.4,0,3.4-0.9,7.1C725,307.7,722.7,309.2,720.8,309.2
			C720.8,309.2,720.8,309.2,720.8,309.2z"/>
		<path class="st2" d="M724.7,295.4c0.1,0,0.2,0,0.3,0.1c-0.2,1.9,0.3,3.4-0.9,8.4c-0.6,2.3-2,3.5-3.3,3.5c-1.4,0-2.6-1.6-1.8-4.8
			C720.3,297.2,723.6,295.4,724.7,295.4 M724.7,291.7c-3.3,0-7.7,3.5-9.3,10c-0.9,3.7,0,6,1,7.2c1.1,1.4,2.7,2.2,4.4,2.2
			c3.2,0,5.9-2.5,6.9-6.3c1-3.9,1-6,1-7.5c0-0.5,0-0.9,0-1.3c0.2-1.5-0.6-3-1.9-3.7C726.2,291.8,725.5,291.7,724.7,291.7
			L724.7,291.7z"/>
	</g>
</g>
<g>
	<g>
		<path class="st52" d="M666,308.1c-1.2,0-2.2-0.5-2.9-1.4c-0.7-0.9-1.4-2.7-0.7-5.6c1.5-5.9,5.3-8.6,7.5-8.6c0.4,0,0.8,0.1,1.2,0.3
			c0.7,0.4,1.1,1.1,1,1.9c-0.1,0.5-0.1,0.9-0.1,1.5c0,1.4,0,3.4-0.9,7.1C670.3,306.6,668,308.1,666,308.1L666,308.1z"/>
		<path class="st2" d="M670,294.3c0.1,0,0.2,0,0.3,0.1c-0.2,1.9,0.3,3.4-0.9,8.4c-0.6,2.3-2,3.5-3.3,3.5c-1.4,0-2.6-1.6-1.8-4.8
			C665.5,296.1,668.8,294.3,670,294.3 M670,290.6c-3.3,0-7.7,3.5-9.3,10c-0.9,3.7,0,6,1,7.2c1.1,1.4,2.7,2.2,4.4,2.2
			c3.2,0,5.9-2.5,6.9-6.3c1-3.9,1-6,1-7.5c0-0.5,0-0.9,0-1.3c0.2-1.5-0.6-3-1.9-3.7C671.4,290.7,670.7,290.6,670,290.6L670,290.6z"
			/>
	</g>
</g>
<g>
	<g>
		<path class="st52" d="M700.5,282.9c-1.2,0-2.2-0.5-2.9-1.4c-0.7-0.9-1.4-2.7-0.7-5.6c1.5-5.9,5.3-8.6,7.5-8.6
			c0.4,0,0.8,0.1,1.2,0.3c0.7,0.4,1.1,1.1,1,1.9c-0.1,0.5-0.1,0.9-0.1,1.5c0,1.4,0,3.4-0.9,7.1C704.7,281.4,702.4,282.9,700.5,282.9
			L700.5,282.9z"/>
		<path class="st2" d="M704.4,269.1c0.1,0,0.2,0,0.3,0.1c-0.2,1.9,0.3,3.4-0.9,8.4c-0.6,2.3-2,3.5-3.3,3.5c-1.4,0-2.6-1.6-1.8-4.8
			C700,271,703.3,269.1,704.4,269.1 M704.4,265.4c-3.3,0-7.7,3.5-9.3,10c-0.9,3.7,0,6,1,7.2c1.1,1.4,2.7,2.2,4.4,2.2
			c3.2,0,5.9-2.5,6.9-6.3c1-3.9,1-6,1-7.5c0-0.5,0-0.9,0-1.3c0.2-1.5-0.6-3-1.9-3.7C705.9,265.6,705.2,265.4,704.4,265.4
			L704.4,265.4z"/>
	</g>
</g>
<g>
	<g>
		<path class="st52" d="M687.2,307.4c-1.2,0-2.2-0.5-2.9-1.4c-0.7-0.9-1.4-2.7-0.7-5.6c1.5-5.9,5.3-8.6,7.5-8.6
			c0.4,0,0.8,0.1,1.2,0.3c0.7,0.4,1.1,1.1,1,1.9c-0.1,0.5-0.1,0.9-0.1,1.5c0,1.4,0,3.4-0.9,7.1C691.4,305.9,689.1,307.4,687.2,307.4
			L687.2,307.4z"/>
		<path class="st2" d="M691.1,293.6c0.1,0,0.2,0,0.3,0.1c-0.2,1.9,0.3,3.4-0.9,8.4c-0.6,2.3-2,3.5-3.3,3.5c-1.4,0-2.6-1.6-1.8-4.8
			C686.7,295.5,689.9,293.6,691.1,293.6 M691.1,289.9c-3.3,0-7.7,3.5-9.3,10c-0.9,3.7,0,6,1,7.2c1.1,1.4,2.7,2.2,4.4,2.2
			c3.2,0,5.9-2.5,6.9-6.3c1-3.9,1-6,1-7.5c0-0.5,0-0.9,0-1.3c0.2-1.5-0.6-3-1.9-3.7C692.5,290.1,691.8,289.9,691.1,289.9
			L691.1,289.9z"/>
	</g>
</g>
<g>
	<g>
		<path class="st52" d="M702.6,332.7c-1.2,0-2.2-0.5-2.9-1.4c-0.7-0.9-1.4-2.7-0.7-5.6c1.5-5.9,5.3-8.6,7.5-8.6
			c0.4,0,0.8,0.1,1.2,0.3c0.7,0.4,1.1,1.1,1,1.9c-0.1,0.5-0.1,0.9-0.1,1.5c0,1.4,0,3.4-0.9,7.1C706.9,331.2,704.6,332.7,702.6,332.7
			C702.6,332.7,702.6,332.7,702.6,332.7z"/>
		<path class="st2" d="M706.6,319c0.1,0,0.2,0,0.3,0.1c-0.2,1.9,0.3,3.4-0.9,8.4c-0.6,2.3-2,3.5-3.3,3.5c-1.4,0-2.6-1.6-1.8-4.8
			C702.2,320.8,705.4,319,706.6,319 M706.6,315.2c-3.3,0-7.7,3.5-9.3,10c-0.9,3.7,0,6,1,7.2c1.1,1.4,2.7,2.2,4.4,2.2
			c3.2,0,5.9-2.5,6.9-6.3c1-3.9,1-6,1-7.5c0-0.5,0-0.9,0-1.3c0.2-1.5-0.6-3-1.9-3.7C708,315.4,707.3,315.2,706.6,315.2L706.6,315.2z
			"/>
	</g>
</g>
<g>
	<path class="st6" d="M632.8,282.9c-13.3,0-24.2-10.8-24.2-24.2s10.8-24.2,24.2-24.2c13.3,0,24.2,10.8,24.2,24.2
		S646.2,282.9,632.8,282.9z"/>
	<path class="st2" d="M632.8,236.5c12.3,0,22.3,10,22.3,22.3s-10,22.3-22.3,22.3c-12.3,0-22.3-10-22.3-22.3S620.5,236.5,632.8,236.5
		 M632.8,232.8c-14.3,0-26,11.7-26,26c0,14.3,11.7,26,26,26s26-11.7,26-26C658.8,244.4,647.2,232.8,632.8,232.8L632.8,232.8z"/>
</g>
<path class="st8" d="M639.1,275.3c-12.3,0-22.3-10-22.3-22.3c0-4.9,1.6-9.5,4.3-13.2c-6.3,3.9-10.6,10.9-10.6,18.9
	c0,12.3,10,22.3,22.3,22.3c7.4,0,13.9-3.6,18-9.1C647.4,274.1,643.4,275.3,639.1,275.3z"/>
<g>
	<path class="st53" d="M638.7,266.3c-6.1,0-11-4.9-11-11s4.9-11,11-11c1.3,0,2.7,0.2,3.9,0.7c0.7,0.3,1.2,0.9,1.2,1.7
		c0,0.8-0.4,1.4-1.1,1.7c-1,0.4-1.6,1.4-1.6,2.5c0,0.4,0.1,0.8,0.3,1.2c0,0.1,0.1,0.1,0.1,0.2c0.2,0.5,0.6,0.9,1.1,1
		c0.1,0,0.1,0,0.2,0.1c0.4,0.2,0.7,0.2,1.1,0.2c0.9,0,1.8-0.5,2.3-1.3c0.3-0.5,0.9-0.8,1.6-0.8c0.1,0,0.2,0,0.3,0
		c0.7,0.1,1.3,0.7,1.5,1.4c0.2,0.8,0.3,1.6,0.3,2.3C649.7,261.4,644.7,266.3,638.7,266.3z"/>
	<path class="st2" d="M638.7,246.2c1.1,0,2.2,0.2,3.3,0.6c-1.6,0.7-2.7,2.3-2.7,4.2c0,0.8,0.2,1.4,0.5,2.1c0.4,1,1.2,1.8,2.2,2.1
		c0.6,0.3,1.2,0.4,1.8,0.4c1.6,0,3-0.8,3.8-2.1c0.1,0.6,0.2,1.3,0.2,1.9c0,5.1-4.1,9.2-9.2,9.2c-5.1,0-9.2-4.1-9.2-9.2
		C629.5,250.3,633.6,246.2,638.7,246.2 M638.7,242.5c-7.1,0-12.9,5.8-12.9,12.9c0,7.1,5.8,12.9,12.9,12.9c7.1,0,12.9-5.8,12.9-12.9
		c0-0.9-0.1-1.7-0.3-2.7c-0.3-1.5-1.5-2.6-3-2.9c-0.2,0-0.4-0.1-0.7-0.1c-1.2,0-2.4,0.6-3.1,1.7c-0.1,0.1-0.3,0.4-0.7,0.4
		c-0.1,0-0.2,0-0.3-0.1c-0.1,0-0.2-0.1-0.3-0.1c0-0.1-0.1-0.2-0.1-0.3c-0.1-0.2-0.1-0.3-0.1-0.4c0-0.4,0.3-0.7,0.5-0.8
		c1.4-0.6,2.2-2,2.2-3.5c0-1.5-1-2.8-2.4-3.4C641.8,242.7,640.2,242.5,638.7,242.5L638.7,242.5z"/>
</g>
<g>
	<g>
		<path class="st32" d="M632.7,255.3c0-4.5,3.3-8.3,7.6-9c-0.5-0.1-1-0.1-1.6-0.1c-5.1,0-9.2,4.1-9.2,9.2c0,5.1,4.1,9.2,9.2,9.2
			c0.5,0,1.1-0.1,1.6-0.1C636,263.6,632.7,259.8,632.7,255.3z"/>
	</g>
</g>
<g>
	<path class="st6" d="M751.8,368.4c-17.1,0-31-13.9-31-31c0-17.1,13.9-31,31-31s31,13.9,31,31C782.8,354.5,768.9,368.4,751.8,368.4z
		"/>
	<path class="st2" d="M751.8,308.3c16.1,0,29.2,13.1,29.2,29.2s-13.1,29.2-29.2,29.2s-29.2-13.1-29.2-29.2S735.7,308.3,751.8,308.3
		 M751.8,304.5c-18.1,0-32.9,14.7-32.9,32.9s14.7,32.9,32.9,32.9c18.1,0,32.9-14.7,32.9-32.9S769.9,304.5,751.8,304.5L751.8,304.5z"
		/>
</g>
<path class="st8" d="M757.5,359.1c-16.1,0-29.2-13.1-29.2-29.2c0-4.9,1.2-9.5,3.3-13.5c-5.5,5.3-9,12.8-9,21
	c0,16.1,13.1,29.2,29.2,29.2c11.2,0,20.9-6.3,25.8-15.6C772.4,356,765.3,359.1,757.5,359.1z"/>
<g>
	<path class="st53" d="M759.4,346.7c-7.6,0-13.8-6.2-13.8-13.8s6.2-13.8,13.8-13.8c1.7,0,3.3,0.3,4.9,0.9c0.7,0.3,1.2,0.9,1.2,1.7
		c0,0.8-0.4,1.4-1.1,1.7c-1.5,0.7-2.5,2.1-2.5,3.8c0,0.6,0.2,1.3,0.5,1.9c0,0.1,0.1,0.1,0.1,0.2c0.3,0.8,0.9,1.4,1.8,1.7
		c0.1,0,0.1,0,0.2,0.1c0.5,0.2,1.1,0.4,1.7,0.4c1.4,0,2.7-0.7,3.5-1.9c0.3-0.5,0.9-0.8,1.6-0.8c0.1,0,0.2,0,0.3,0
		c0.7,0.1,1.3,0.7,1.5,1.4c0.2,1,0.3,2,0.3,2.9C773.3,340.5,767.1,346.7,759.4,346.7z"/>
	<path class="st2" d="M759.4,320.9c1.5,0,2.9,0.3,4.3,0.8c-2.1,0.9-3.6,3-3.6,5.5c0,1,0.3,1.9,0.7,2.7c0.5,1.3,1.6,2.3,2.9,2.7
		c0.7,0.3,1.6,0.5,2.4,0.5c2.1,0,4-1.1,5-2.8c0.2,0.8,0.3,1.6,0.3,2.5c0,6.6-5.4,12-12,12c-6.6,0-12-5.4-12-12
		C747.4,326.3,752.8,320.9,759.4,320.9 M759.4,317.2c-8.6,0-15.7,7-15.7,15.7c0,8.6,7,15.7,15.7,15.7c8.6,0,15.7-7,15.7-15.7
		c0-1-0.1-2.1-0.4-3.3c-0.3-1.5-1.5-2.6-3-2.9c-0.2,0-0.4-0.1-0.7-0.1c-1.2,0-2.4,0.6-3.1,1.7c-0.4,0.7-1.1,1.1-1.9,1.1
		c-0.3,0-0.6-0.1-0.9-0.2c-0.1,0-0.2-0.1-0.3-0.1c-0.3-0.1-0.5-0.3-0.6-0.6c0-0.1-0.1-0.2-0.2-0.4c-0.2-0.4-0.3-0.7-0.3-1
		c0-0.9,0.5-1.7,1.4-2.1c1.4-0.6,2.2-2,2.2-3.5c0-1.5-1-2.8-2.4-3.4C763.2,317.6,761.3,317.2,759.4,317.2L759.4,317.2z"/>
</g>
<g>
	<g>
		<path class="st32" d="M751.7,332.9c0-5.9,4.3-10.8,9.9-11.8c-0.7-0.1-1.3-0.2-2-0.2c-6.6,0-12,5.4-12,12c0,6.6,5.4,12,12,12
			c0.7,0,1.4-0.1,2.1-0.2C755.9,343.7,751.7,338.8,751.7,332.9z"/>
	</g>
</g>
<path class="st54" d="M670.2,368.3L644,348.1c-5.7-4.4-6.3-12.9-1.2-18.7l0.4-0.5c3.9-4.5,10.7-5.4,15.1-2l26.2,20.2
	c5.7,4.4,6.3,12.9,1.2,18.7l-0.4,0.5C681.4,370.9,674.6,371.8,670.2,368.3z"/>
<path class="st55" d="M664.3,332.8c-2.7,4.3-8.1,5.9-12,3.7c-4-2.3-5-7.6-2.3-11.9c2.7-4.3,8.1-5.9,12-3.7
	C666,323.2,667,328.5,664.3,332.8z"/>
<path class="st56" d="M679,344.2c-2.7,4.3-8.1,5.9-12,3.7c-4-2.3-5-7.6-2.3-11.9c2.7-4.3,8.1-5.9,12-3.7
	C680.6,334.6,681.6,339.9,679,344.2z"/>
<path class="st55" d="M693.9,355.6c-2.7,4.3-8.1,5.9-12,3.7c-4-2.3-5-7.6-2.3-11.9s8.1-5.9,12-3.7
	C695.5,346,696.5,351.3,693.9,355.6z"/>
<g>
	<path class="st49" d="M677.5,385.4c-7,0-13.8-2.3-19.2-6.6l-26.3-20.6c-6.2-4.9-10.1-11.9-10.8-19.4c-0.7-7.1,1.6-14,6.3-19.4
		c5.3-6,13.2-9.5,21.7-9.5c7,0,13.8,2.3,19.2,6.6l26.3,20.6c6.2,4.9,10.1,11.9,10.8,19.4c0.7,7.1-1.6,14-6.3,19.4
		C693.9,382,686,385.4,677.5,385.4C677.5,385.4,677.5,385.4,677.5,385.4z M652,327.5c-3.5,0-6.6,1.4-8.7,3.8
		c-1.8,2.1-2.7,4.8-2.4,7.5c0.3,3,1.9,5.7,4.4,7.7l23.4,18.1c2.2,1.7,4.9,2.6,7.7,2.6c3.5,0,6.6-1.4,8.7-3.8
		c1.8-2.1,2.7-4.8,2.4-7.5c-0.3-3-1.9-5.7-4.4-7.7l-23.4-18.1C657.5,328.4,654.8,327.5,652,327.5z"/>
	<path class="st12" d="M649.1,311.8c6.3,0,12.7,2,18,6.2l26.3,20.6c11.7,9.2,13.7,25.4,4.3,36.1c-5.1,5.8-12.7,8.8-20.3,8.8
		c-6.3,0-12.7-2-18-6.2l-26.3-20.6c-11.7-9.2-13.7-25.4-4.3-36.1v0C633.9,314.8,641.4,311.8,649.1,311.8 M676.4,369.1
		c3.8,0,7.6-1.5,10.1-4.5c4.6-5.3,3.6-13.4-2.3-17.9l-23.4-18.1c-2.6-2-5.8-3-8.9-3c-3.8,0-7.6,1.5-10.1,4.5
		c-4.6,5.3-3.6,13.4,2.3,17.9l23.4,18.1C670.1,368.1,673.3,369.1,676.4,369.1 M649.1,308.1c-9,0-17.5,3.7-23.1,10.1
		c-5.1,5.7-7.4,13.1-6.7,20.8c0.7,8,4.9,15.6,11.5,20.7l26.3,20.6c5.7,4.5,13,7,20.3,7c9,0,17.5-3.7,23.1-10.1
		c5.1-5.7,7.4-13.1,6.7-20.8c-0.7-8-4.9-15.6-11.5-20.7l-26.3-20.6C663.7,310.6,656.5,308.1,649.1,308.1L649.1,308.1z M676.4,365.3
		c-2.4,0-4.7-0.8-6.6-2.2l-23.4-18.1c-2.1-1.6-3.4-3.9-3.7-6.4c-0.2-2.3,0.5-4.4,1.9-6.1c1.7-2,4.4-3.2,7.3-3.2
		c2.4,0,4.7,0.8,6.6,2.2l23.4,18.1c2.1,1.6,3.4,3.9,3.7,6.4c0.2,2.3-0.5,4.4-1.9,6.1C681.9,364.2,679.3,365.3,676.4,365.3
		L676.4,365.3z"/>
</g>
<g>
	<g>
		<path class="st57" d="M643,352.1l23.4,18.1c5.9,4.5,14.4,3.9,19-1.5c1.7-2,2.7-4.4,2.8-6.8c-0.5,1-1,1.9-1.7,2.7
			c-4.6,5.3-13.2,6-19,1.5L644.1,348c-3.6-2.8-5.4-7-5.1-11C636.6,342,638.1,348.3,643,352.1z"/>
	</g>
	<g>
		<path class="st57" d="M627.7,324.7L627.7,324.7c9.4-10.7,26.6-11.9,38.4-2.7l26.3,20.6c8,6.2,11.4,15.7,9.9,24.5
			c3.6-9.8,0.5-21.4-8.7-28.6L667.2,318c-11.7-9.2-29-8-38.4,2.7c-3,3.4-4.8,7.4-5.6,11.6C624.2,329.6,625.7,327,627.7,324.7z"/>
	</g>
</g>
<g>
	<path class="st11" d="M690.1,360.9c4.6-5.3,3.6-13.4-2.3-17.9l-23.4-18.1c-5.9-4.5-14.4-3.9-19,1.5c-0.4,0.5-0.8,1-1.1,1.6
		c4.8-3.2,11.6-3.1,16.5,0.7l23.4,18.1c5.3,4.1,6.6,11.1,3.4,16.3C688.5,362.4,689.4,361.7,690.1,360.9z"/>
	<path class="st11" d="M663,373.7L636.7,353c-11.4-8.9-13.5-24.4-5.2-35c-1,0.8-1.9,1.7-2.7,2.6c-9.4,10.7-7.4,26.9,4.3,36.1
		l26.3,20.6c11.7,9.2,29,8,38.4-2.7c0.3-0.3,0.6-0.7,0.9-1.1C688.9,381.8,673.7,382,663,373.7z"/>
</g>
<g>
</g>
<g>
</g>
<g>
</g>
<g>
</g>
<g>
</g>
<g>
</g>
</svg>
